<svg width="21" height="24" viewBox="0 0 21 24" fill="none" xmlns="http://www.w3.org/2000/svg">
    <path
        d="M20.292 18.7036C19.929 19.5421 19.4994 20.3139 19.0016 21.0235C18.3231 21.9909 17.7676 22.6605 17.3395 23.0323C16.6758 23.6427 15.9647 23.9553 15.2032 23.973C14.6566 23.973 13.9973 23.8175 13.23 23.5019C12.4601 23.1879 11.7525 23.0323 11.1056 23.0323C10.4271 23.0323 9.69941 23.1879 8.92106 23.5019C8.14153 23.8175 7.51355 23.9819 7.03342 23.9982C6.30322 24.0293 5.57539 23.7079 4.8489 23.0323C4.38521 22.6279 3.80523 21.9346 3.11043 20.9524C2.36498 19.9035 1.75211 18.6873 1.27198 17.3006C0.75777 15.8029 0.5 14.3526 0.5 12.9485C0.5 11.3401 0.847544 9.95287 1.54367 8.79038C2.09076 7.85663 2.81859 7.12006 3.72953 6.57934C4.64046 6.03861 5.62473 5.76307 6.68469 5.74544C7.26467 5.74544 8.02524 5.92484 8.9704 6.27742C9.91288 6.63119 10.5181 6.81059 10.7834 6.81059C10.9817 6.81059 11.654 6.60082 12.7937 6.18261C13.8714 5.79477 14.781 5.63418 15.5262 5.69744C17.5454 5.8604 19.0624 6.65637 20.0712 8.0904C18.2654 9.18459 17.3721 10.7171 17.3898 12.6832C17.4061 14.2145 17.9617 15.4888 19.0535 16.5007C19.5483 16.9703 20.1009 17.3332 20.7156 17.591C20.5823 17.9777 20.4416 18.348 20.292 18.7036V18.7036ZM15.661 0.480411C15.661 1.68069 15.2225 2.80138 14.3484 3.83868C13.2937 5.07183 12.0179 5.7844 10.6343 5.67196C10.6167 5.52796 10.6065 5.37641 10.6065 5.21716C10.6065 4.0649 11.1081 2.83175 11.9989 1.82348C12.4436 1.31298 13.0092 0.888503 13.6951 0.54989C14.3796 0.21633 15.0269 0.0318637 15.6358 0.000274658C15.6536 0.160733 15.661 0.321201 15.661 0.480396V0.480411Z"
        fill="white" />
</svg>