<svg width="25" height="24" viewBox="0 0 25 24" fill="none" xmlns="http://www.w3.org/2000/svg">
    <path fill-rule="evenodd" clip-rule="evenodd"
        d="M17.3433 6.54784C16.1043 5.36614 14.4508 4.72238 12.74 4.74884C9.60936 4.74884 6.95055 6.86089 6.00253 9.70489C5.49987 11.1952 5.49987 12.8091 6.00253 14.2995H6.00693C6.95934 17.1391 9.61376 19.2512 12.7444 19.2512C14.3604 19.2512 15.7478 18.8378 16.823 18.1077V18.1047C18.0885 17.267 18.9528 15.9486 19.2217 14.4582H12.74V9.83725H24.0588C24.1999 10.6397 24.266 11.4599 24.266 12.2756C24.266 15.9255 22.9616 19.0112 20.6921 21.1012L20.6944 21.1031C18.7058 22.9374 15.9764 24 12.74 24C8.20278 24 4.05359 21.4426 2.01648 17.3904C0.31449 13.9996 0.314494 10.0048 2.01649 6.61401C4.0536 2.55743 8.20277 -1.53086e-05 12.74 -1.53086e-05C15.7207 -0.03529 18.6 1.08468 20.7694 3.12179L17.3433 6.54784Z"
        fill="white" />
</svg>