<svg width="32" height="32" viewBox="0 0 32 32" fill="none" xmlns="http://www.w3.org/2000/svg">
    <path
        d="M16.99 5.2101C16.4433 4.66337 15.5568 4.66337 15.0101 5.2101L5.2101 15.0101C4.66337 15.5568 4.66337 16.4433 5.2101 16.99C5.75683 17.5367 6.64326 17.5367 7.19 16.99L7.60005 16.5799V25.8C7.60005 26.5732 8.22685 27.2 9.00005 27.2H11.8C12.5732 27.2 13.2 26.5732 13.2 25.8V23C13.2 22.2268 13.8268 21.6 14.6 21.6H17.4C18.1732 21.6 18.8 22.2268 18.8 23V25.8C18.8 26.5732 19.4268 27.2 20.2 27.2H23C23.7732 27.2 24.4 26.5732 24.4 25.8V16.5799L24.8101 16.99C25.3568 17.5367 26.2433 17.5367 26.79 16.99C27.3367 16.4433 27.3367 15.5568 26.79 15.0101L16.99 5.2101Z"
        fill="#F6F5F6" />
</svg>