<svg width="34" height="34" viewBox="0 0 34 34" fill="none" xmlns="http://www.w3.org/2000/svg">
    <path fill-rule="evenodd" clip-rule="evenodd"
        d="M16.8 33.6C26.0784 33.6 33.6 26.0784 33.6 16.8C33.6 7.52162 26.0784 0 16.8 0C7.52162 0 0 7.52162 0 16.8C0 26.0784 7.52162 33.6 16.8 33.6ZM22.6663 10.4003C22.3018 10.0358 21.7109 10.0358 21.3464 10.4003C20.9819 10.7648 20.9819 11.3558 21.3464 11.7203C22.6986 13.0725 23.5333 14.9379 23.5333 17C23.5333 19.0621 22.6986 20.9275 21.3464 22.2797C20.9819 22.6442 20.9819 23.2352 21.3464 23.5997C21.7109 23.9642 22.3018 23.9642 22.6663 23.5997C24.3543 21.9117 25.4 19.5771 25.4 17C25.4 14.4229 24.3543 12.0883 22.6663 10.4003ZM20.0265 13.0402C19.662 12.6757 19.071 12.6757 18.7065 13.0402C18.342 13.4047 18.342 13.9956 18.7065 14.3601C19.0348 14.6884 19.3019 15.077 19.4898 15.507C19.689 15.963 19.8 16.4673 19.8 17C19.8 18.0312 19.3832 18.9632 18.7065 19.6399C18.342 20.0044 18.342 20.5953 18.7065 20.9598C19.071 21.3243 19.662 21.3243 20.0265 20.9598C21.0388 19.9474 21.6667 18.5461 21.6667 17C21.6667 16.2053 21.5006 15.4469 21.2003 14.7597C20.9178 14.1131 20.5173 13.531 20.0265 13.0402ZM17 11.4001C17 11.0226 16.7726 10.6822 16.4238 10.5378C16.0751 10.3933 15.6736 10.4732 15.4067 10.7401L11.9467 14.2001H9.53333C9.01787 14.2001 8.6 14.6179 8.6 15.1334V18.8667C8.6 19.3822 9.01787 19.8001 9.53333 19.8001H11.9467L15.4067 23.26C15.6736 23.527 16.0751 23.6068 16.4238 23.4624C16.7726 23.3179 17 22.9776 17 22.6001V11.4001Z"
        fill="#FEF2FF" />
</svg>