<svg width="76" height="69" viewBox="0 0 76 69" fill="none" xmlns="http://www.w3.org/2000/svg">
    <g filter="url(#filter0_d_105_1354)">
        <path
            d="M67.9733 47.4941L50.1224 57.631C43.1615 61.5849 34.5517 56.5006 34.5726 48.4457L34.6613 12.6825C34.6718 9.1808 30.9252 6.97254 27.8988 8.69183L11.0967 18.2504C9.64608 19.2126 7.67888 18.7184 6.85965 17.2357C6.05085 15.7635 6.65092 13.8339 8.21112 13.0873L25.3106 3.38149C32.3184 -0.59863 40.9856 4.49614 40.9908 12.5983L41.0325 48.0356C41.0378 51.5741 44.8208 53.7981 47.8838 52.0631L65.072 42.2994C66.4705 41.5475 68.1611 41.9471 68.9855 43.1091C69.9352 44.4446 69.5543 46.5214 67.9733 47.4941ZM50.7224 26.931V34.3917C50.7224 35.8271 49.5692 36.9943 48.1395 36.9943C46.715 36.9943 45.5566 35.8324 45.5566 34.3917V26.931C45.5566 25.4956 46.7098 24.3284 48.1395 24.3284C49.564 24.3337 50.7224 25.4956 50.7224 26.931ZM20.3117 27.93V33.3928C20.3117 34.8281 19.1586 35.9954 17.7288 35.9954C16.3043 35.9954 15.1459 34.8334 15.1459 33.3928V27.93C15.1459 26.4946 16.2991 25.3274 17.7288 25.3274C19.1586 25.3326 20.3117 26.4946 20.3117 27.93ZM60.4384 29.3443V31.9784C60.4384 33.4138 59.2852 34.581 57.8555 34.581C56.431 34.581 55.2726 33.4191 55.2726 31.9784V29.3443C55.2726 27.9089 56.4257 26.7417 57.8555 26.7417C59.2852 26.747 60.4384 27.9089 60.4384 29.3443ZM30.0277 23.1139V37.8829C30.0277 39.3183 28.8745 40.4855 27.4448 40.4855C26.0203 40.4855 24.8619 39.3235 24.8619 37.8829V23.1139C24.8619 21.6785 26.015 20.5113 27.4448 20.5113C28.8745 20.5113 30.0277 21.6785 30.0277 23.1139Z"
            fill="url(#paint0_linear_105_1354)" />
    </g>
    <defs>
        <filter id="filter0_d_105_1354" x="0.5" y="0" width="75" height="69" filterUnits="userSpaceOnUse"
            color-interpolation-filters="sRGB">
            <feFlood flood-opacity="0" result="BackgroundImageFix" />
            <feColorMatrix in="SourceAlpha" type="matrix" values="0 0 0 0 0 0 0 0 0 0 0 0 0 0 0 0 0 0 127 0"
                result="hardAlpha" />
            <feOffset dy="4" />
            <feGaussianBlur stdDeviation="3" />
            <feComposite in2="hardAlpha" operator="out" />
            <feColorMatrix type="matrix" values="0 0 0 0 0 0 0 0 0 0 0 0 0 0 0 0 0 0 0.25 0" />
            <feBlend mode="normal" in2="BackgroundImageFix" result="effect1_dropShadow_105_1354" />
            <feBlend mode="normal" in="SourceGraphic" in2="effect1_dropShadow_105_1354" result="shape" />
        </filter>
        <linearGradient id="paint0_linear_105_1354" x1="24" y1="7" x2="50.5" y2="54" gradientUnits="userSpaceOnUse">
            <stop stop-color="#F780FB" />
            <stop offset="1" stop-color="#77F8FB" />
        </linearGradient>
    </defs>
</svg>