<svg width="108" height="85" viewBox="0 0 108 85" fill="none" xmlns="http://www.w3.org/2000/svg">
    <g filter="url(#filter0_d_105_1408)">
        <path fill-rule="evenodd" clip-rule="evenodd"
            d="M54 75C71.1208 75 85 61.1208 85 44C85 26.8792 71.1208 13 54 13C36.8792 13 23 26.8792 23 44C23 61.1208 36.8792 75 54 75ZM57 32.6026V54.4957C57 55.9311 55.8468 57.0983 54.4171 57.0983C52.9926 57.0983 51.8341 55.9363 51.8341 54.4957V32.6026C51.8341 31.1673 52.9873 30.0001 54.4171 30.0001C55.8416 30.0053 57 31.1673 57 32.6026ZM67.2225 47.3878V39.9271C67.2225 38.4917 66.0641 37.3298 64.6396 37.3245C63.2099 37.3245 62.0567 38.4917 62.0567 39.9271V47.3878C62.0567 48.8284 63.2151 49.9904 64.6396 49.9904C66.0694 49.9904 67.2225 48.8232 67.2225 47.3878ZM36.8118 46.3888V40.926C36.8118 39.4907 35.6587 38.3287 34.2289 38.3235C32.7992 38.3235 31.646 39.4907 31.646 40.926V46.3888C31.646 47.8295 32.8044 48.9914 34.2289 48.9914C35.6587 48.9914 36.8118 47.8242 36.8118 46.3888ZM76.9385 44.9745V42.3404C76.9385 40.905 75.7853 39.7431 74.3556 39.7378C72.9259 39.7378 71.7727 40.905 71.7727 42.3404V44.9745C71.7727 46.4151 72.9311 47.5771 74.3556 47.5771C75.7853 47.5771 76.9385 46.4099 76.9385 44.9745ZM46.5278 50.879V36.11C46.5278 34.6746 45.3746 33.5074 43.9449 33.5074C42.5152 33.5074 41.362 34.6746 41.362 36.11V50.879C41.362 52.3196 42.5204 53.4815 43.9449 53.4815C45.3746 53.4815 46.5278 52.3143 46.5278 50.879Z"
            fill="url(#paint0_linear_105_1408)" />
        <path fill-rule="evenodd" clip-rule="evenodd"
            d="M95 52.9C97.2822 52.4367 99 50.419 99 48V39C99 36.581 97.2822 34.5633 95 34.1V34C95 32.9514 94.462 32.0285 93.647 31.4922C92.49 24.1389 88.5245 17.2626 82.2843 11.9584C74.7828 5.58213 64.6087 2 54 2C43.3913 2 33.2172 5.58213 25.7157 11.9584C19.4755 17.2626 15.51 24.1389 14.353 31.4922C13.538 32.0285 13 32.9514 13 34V34.1C10.7178 34.5633 9 36.581 9 39V48C9 50.419 10.7178 52.4367 13 52.9V53C13 54.6569 14.3431 56 16 56C17.6569 56 19 54.6569 19 53V48V39V34C19 33.0582 18.5661 32.2178 17.8872 31.6678C18.9864 25.0471 22.5847 18.8624 28.2115 14.0797C35.051 8.26606 44.3275 5 54.0001 5C63.6727 5 72.9491 8.26606 79.7887 14.0797C85.4154 18.8624 89.0137 25.047 90.1129 31.6677C89.434 32.2177 89 33.0582 89 34V39V48V53C89 54.6569 90.3431 56 92 56C93.6569 56 95 54.6569 95 53V52.9Z"
            fill="#F780FB" />
    </g>
    <defs>
        <filter id="filter0_d_105_1408" x="0" y="0" width="108" height="85" filterUnits="userSpaceOnUse"
            color-interpolation-filters="sRGB">
            <feFlood flood-opacity="0" result="BackgroundImageFix" />
            <feColorMatrix in="SourceAlpha" type="matrix" values="0 0 0 0 0 0 0 0 0 0 0 0 0 0 0 0 0 0 127 0"
                result="hardAlpha" />
            <feOffset dy="4" />
            <feGaussianBlur stdDeviation="3" />
            <feComposite in2="hardAlpha" operator="out" />
            <feColorMatrix type="matrix" values="0 0 0 0 0 0 0 0 0 0 0 0 0 0 0 0 0 0 0.25 0" />
            <feBlend mode="normal" in2="BackgroundImageFix" result="effect1_dropShadow_105_1408" />
            <feBlend mode="normal" in="SourceGraphic" in2="effect1_dropShadow_105_1408" result="shape" />
        </filter>
        <linearGradient id="paint0_linear_105_1408" x1="40.2222" y1="18.4386" x2="70.4643" y2="66.9673"
            gradientUnits="userSpaceOnUse">
            <stop stop-color="#F780FB" />
            <stop offset="1" stop-color="#77F8FB" />
        </linearGradient>
    </defs>
</svg>