<svg width="34" height="34" viewBox="0 0 34 34" fill="none" xmlns="http://www.w3.org/2000/svg">
    <path fill-rule="evenodd" clip-rule="evenodd"
        d="M33.7999 17C33.7999 26.2784 26.2783 33.8 17 33.8C7.72157 33.8 0.199951 26.2784 0.199951 17C0.199951 7.72161 7.72157 0.199997 17 0.199997C26.2783 0.199997 33.7999 7.72161 33.7999 17ZM10.7 12.8C10.7 11.6402 11.6402 10.7 12.8 10.7C13.9597 10.7 14.9 11.6402 14.9 12.8V21.2C14.9 22.3598 13.9597 23.3 12.8 23.3C11.6402 23.3 10.7 22.3598 10.7 21.2V12.8ZM21.2 10.7C20.0402 10.7 19.1 11.6402 19.1 12.8V21.2C19.1 22.3598 20.0402 23.3 21.2 23.3C22.3597 23.3 23.2999 22.3598 23.2999 21.2V12.8C23.2999 11.6402 22.3597 10.7 21.2 10.7Z"
        fill="#FAAAFC" />
</svg>