<svg width="34" height="34" viewBox="0 0 34 34" fill="none" xmlns="http://www.w3.org/2000/svg">
    <path fill-rule="evenodd" clip-rule="evenodd"
        d="M17 33.8C26.2783 33.8 33.7999 26.2784 33.7999 17C33.7999 7.72163 26.2783 0.200012 17 0.200012C7.72157 0.200012 0.199951 7.72163 0.199951 17C0.199951 26.2784 7.72157 33.8 17 33.8ZM16.0648 11.0527C15.4204 10.6231 14.5919 10.5831 13.909 10.9485C13.2262 11.3139 12.8 12.0255 12.8 12.8V21.2C12.8 21.9745 13.2262 22.6861 13.909 23.0515C14.5919 23.417 15.4204 23.3769 16.0648 22.9473L22.3648 18.7473C22.949 18.3578 23.2999 17.7022 23.2999 17C23.2999 16.2979 22.949 15.6422 22.3648 15.2527L16.0648 11.0527Z"
        fill="#FEF2FF" />
</svg>