<svg width="34" height="34" viewBox="0 0 34 34" fill="none" xmlns="http://www.w3.org/2000/svg">
    <path fill-rule="evenodd" clip-rule="evenodd"
        d="M16.8 33.6C26.0784 33.6 33.6 26.0784 33.6 16.8C33.6 7.52162 26.0784 0 16.8 0C7.52162 0 0 7.52162 0 16.8C0 26.0784 7.52162 33.6 16.8 33.6ZM9.35758 13.92C8.70135 13.9213 8.22177 13.3008 8.38841 12.6661L9.54236 8.27065C9.75308 7.46802 10.7933 7.25646 11.3008 7.91304L12.5282 9.50112C13.6773 8.77542 14.9871 8.3214 16.3572 8.18645C18.3793 7.98729 20.408 8.49544 22.0975 9.62432C23.787 10.7532 25.0328 12.433 25.6226 14.3774C26.2124 16.3218 26.1098 18.4106 25.3322 20.2879C24.5547 22.1651 23.1502 23.7147 21.3582 24.6726C19.5662 25.6304 17.4975 25.9373 15.5046 25.5408C13.5118 25.1444 11.718 24.0693 10.4289 22.4986C9.33624 21.1671 8.66354 19.5494 8.48396 17.8499C8.4303 17.342 8.84932 16.9269 9.36 16.9269H10.2845L10.2847 16.927C10.2847 20.7564 13.389 23.8608 17.2184 23.8608C21.0478 23.8608 24.1521 20.7564 24.1521 16.927C24.1521 13.0977 21.0478 9.99332 17.2184 9.99332C15.9196 9.99332 14.7041 10.3504 13.665 10.9718L14.6912 12.2996C15.1987 12.9562 14.7318 13.9095 13.902 13.9111L9.35758 13.92Z"
        fill="#FEF2FF" />
</svg>