<svg width="52" height="52" viewBox="0 0 52 52" fill="none" xmlns="http://www.w3.org/2000/svg">
    <circle cx="26.5" cy="26.5" r="23.5" stroke="#FEF2FF" stroke-width="2" />
    <path fill-rule="evenodd" clip-rule="evenodd"
        d="M26.7002 44.2C36.3652 44.2 44.2002 36.365 44.2002 26.7C44.2002 17.035 36.3652 9.20001 26.7002 9.20001C17.0352 9.20001 9.2002 17.035 9.2002 26.7C9.2002 36.365 17.0352 44.2 26.7002 44.2ZM22.3252 20.1375C21.1171 20.1375 20.1377 21.1169 20.1377 22.325V31.075C20.1377 32.2831 21.1171 33.2625 22.3252 33.2625H31.0752C32.2833 33.2625 33.2627 32.2831 33.2627 31.075V22.325C33.2627 21.1169 32.2833 20.1375 31.0752 20.1375H22.3252Z"
        fill="#F780FB" />
</svg>