<svg width="328" height="200" viewBox="0 0 328 200" fill="none" xmlns="http://www.w3.org/2000/svg">
    <rect width="328" height="200" rx="18" fill="url(#paint0_linear_1916_8877)" />
    <path
        d="M86.2021 108.786C84.1394 108.786 82.3888 108.396 80.9501 107.616C79.5288 106.836 78.4454 105.744 77.7001 104.34C76.9548 102.936 76.5821 101.289 76.5821 99.4C76.5821 97.4587 76.9634 95.7773 77.7261 94.356C78.5061 92.9347 79.6241 91.834 81.0801 91.054C82.5361 90.274 84.2868 89.884 86.3321 89.884C87.6148 89.884 88.8281 90.066 89.9721 90.43C91.1334 90.794 92.0781 91.2793 92.8061 91.886L91.5061 95.032C90.7088 94.4427 89.8941 94.0267 89.0621 93.784C88.2301 93.524 87.3288 93.394 86.3581 93.394C84.5034 93.394 83.1081 93.914 82.1721 94.954C81.2534 95.9767 80.7941 97.4587 80.7941 99.4C80.7941 101.359 81.2621 102.841 82.1981 103.846C83.1514 104.851 84.5554 105.354 86.4101 105.354C87.3981 105.354 88.4381 105.198 89.5301 104.886V101.298H85.5781V98.386H92.8581V107.382C91.9568 107.833 90.9168 108.179 89.7381 108.422C88.5594 108.665 87.3808 108.786 86.2021 108.786ZM102.197 108.786C100.689 108.786 99.389 108.517 98.297 107.98C97.2223 107.425 96.3903 106.654 95.801 105.666C95.229 104.661 94.943 103.482 94.943 102.13C94.943 100.813 95.2203 99.66 95.775 98.672C96.347 97.6667 97.1183 96.8867 98.089 96.332C99.077 95.76 100.212 95.474 101.495 95.474C103.35 95.474 104.823 96.0633 105.915 97.242C107.007 98.4033 107.553 99.9807 107.553 101.974V102.962H98.687C98.8257 103.967 99.1897 104.704 99.779 105.172C100.386 105.623 101.218 105.848 102.275 105.848C102.968 105.848 103.67 105.744 104.381 105.536C105.092 105.328 105.733 105.007 106.305 104.574L107.345 107.2C106.704 107.685 105.915 108.075 104.979 108.37C104.06 108.647 103.133 108.786 102.197 108.786ZM101.651 98.074C100.819 98.074 100.143 98.3253 99.623 98.828C99.1203 99.3307 98.8083 100.033 98.687 100.934H104.303C104.199 99.0273 103.315 98.074 101.651 98.074ZM109.317 108.5V95.734H113.165V97.606C113.598 96.9127 114.179 96.384 114.907 96.02C115.635 95.656 116.449 95.474 117.351 95.474C118.859 95.474 119.985 95.916 120.731 96.8C121.476 97.6667 121.849 99.01 121.849 100.83V108.5H117.923V101.012C117.923 100.128 117.758 99.4953 117.429 99.114C117.099 98.7153 116.614 98.516 115.973 98.516C115.141 98.516 114.473 98.776 113.971 99.296C113.485 99.816 113.243 100.509 113.243 101.376V108.5H109.317ZM130.889 108.786C129.381 108.786 128.081 108.517 126.989 107.98C125.915 107.425 125.083 106.654 124.493 105.666C123.921 104.661 123.635 103.482 123.635 102.13C123.635 100.813 123.913 99.66 124.467 98.672C125.039 97.6667 125.811 96.8867 126.781 96.332C127.769 95.76 128.905 95.474 130.187 95.474C132.042 95.474 133.515 96.0633 134.607 97.242C135.699 98.4033 136.245 99.9807 136.245 101.974V102.962H127.379C127.518 103.967 127.882 104.704 128.471 105.172C129.078 105.623 129.91 105.848 130.967 105.848C131.661 105.848 132.363 105.744 133.073 105.536C133.784 105.328 134.425 105.007 134.997 104.574L136.037 107.2C135.396 107.685 134.607 108.075 133.671 108.37C132.753 108.647 131.825 108.786 130.889 108.786ZM130.343 98.074C129.511 98.074 128.835 98.3253 128.315 98.828C127.813 99.3307 127.501 100.033 127.379 100.934H132.995C132.891 99.0273 132.007 98.074 130.343 98.074ZM138.009 108.5V95.734H141.857V97.944C142.464 96.4533 143.764 95.63 145.757 95.474L146.901 95.396L147.135 98.698L144.925 98.932C142.984 99.1227 142.013 100.111 142.013 101.896V108.5H138.009ZM152.393 108.786C151.439 108.786 150.599 108.604 149.871 108.24C149.143 107.876 148.562 107.382 148.129 106.758C147.713 106.134 147.505 105.432 147.505 104.652C147.505 103.733 147.747 102.997 148.233 102.442C148.718 101.887 149.507 101.497 150.599 101.272C151.691 101.029 153.138 100.908 154.941 100.908H155.877V100.466C155.877 99.7033 155.703 99.166 155.357 98.854C155.01 98.5247 154.421 98.36 153.589 98.36C152.895 98.36 152.159 98.4727 151.379 98.698C150.616 98.906 149.853 99.2267 149.091 99.66L148.025 97.034C148.475 96.7393 149.021 96.4707 149.663 96.228C150.321 95.9853 151.006 95.8033 151.717 95.682C152.427 95.5433 153.103 95.474 153.745 95.474C155.721 95.474 157.194 95.9247 158.165 96.826C159.135 97.71 159.621 99.088 159.621 100.96V108.5H155.955V106.576C155.695 107.252 155.253 107.789 154.629 108.188C154.022 108.587 153.277 108.786 152.393 108.786ZM153.277 106.16C154.005 106.16 154.62 105.909 155.123 105.406C155.625 104.903 155.877 104.253 155.877 103.456V102.936H154.967C153.632 102.936 152.687 103.057 152.133 103.3C151.578 103.525 151.301 103.924 151.301 104.496C151.301 104.981 151.465 105.38 151.795 105.692C152.141 106.004 152.635 106.16 153.277 106.16ZM168.295 108.786C164.707 108.786 162.913 107.044 162.913 103.56V98.672H160.495V95.734H162.913V91.99H166.839V95.734H170.609V98.672H166.839V103.404C166.839 104.132 167.004 104.678 167.333 105.042C167.68 105.406 168.226 105.588 168.971 105.588C169.197 105.588 169.431 105.562 169.673 105.51C169.933 105.458 170.211 105.389 170.505 105.302L171.077 108.162C170.713 108.353 170.28 108.5 169.777 108.604C169.275 108.725 168.781 108.786 168.295 108.786ZM178.524 108.786C177.016 108.786 175.716 108.517 174.624 107.98C173.55 107.425 172.718 106.654 172.128 105.666C171.556 104.661 171.27 103.482 171.27 102.13C171.27 100.813 171.548 99.66 172.102 98.672C172.674 97.6667 173.446 96.8867 174.416 96.332C175.404 95.76 176.54 95.474 177.822 95.474C179.677 95.474 181.15 96.0633 182.242 97.242C183.334 98.4033 183.88 99.9807 183.88 101.974V102.962H175.014C175.153 103.967 175.517 104.704 176.106 105.172C176.713 105.623 177.545 105.848 178.602 105.848C179.296 105.848 179.998 105.744 180.708 105.536C181.419 105.328 182.06 105.007 182.632 104.574L183.672 107.2C183.031 107.685 182.242 108.075 181.306 108.37C180.388 108.647 179.46 108.786 178.524 108.786ZM177.978 98.074C177.146 98.074 176.47 98.3253 175.95 98.828C175.448 99.3307 175.136 100.033 175.014 100.934H180.63C180.526 99.0273 179.642 98.074 177.978 98.074ZM199.25 108.786C197.811 108.786 196.451 108.604 195.168 108.24C193.903 107.876 192.845 107.382 191.996 106.758L193.166 103.586C193.981 104.158 194.908 104.609 195.948 104.938C197.005 105.267 198.106 105.432 199.25 105.432C200.498 105.432 201.391 105.241 201.928 104.86C202.483 104.461 202.76 103.967 202.76 103.378C202.76 102.875 202.569 102.477 202.188 102.182C201.807 101.887 201.139 101.636 200.186 101.428L197.248 100.804C193.972 100.111 192.334 98.412 192.334 95.708C192.334 94.5467 192.646 93.5327 193.27 92.666C193.894 91.782 194.761 91.0973 195.87 90.612C196.997 90.1267 198.297 89.884 199.77 89.884C201.035 89.884 202.223 90.066 203.332 90.43C204.441 90.794 205.36 91.3053 206.088 91.964L204.918 94.928C203.497 93.8013 201.772 93.238 199.744 93.238C198.652 93.238 197.803 93.4547 197.196 93.888C196.607 94.304 196.312 94.85 196.312 95.526C196.312 96.0287 196.494 96.436 196.858 96.748C197.222 97.06 197.855 97.3113 198.756 97.502L201.694 98.126C205.057 98.854 206.738 100.501 206.738 103.066C206.738 104.21 206.426 105.215 205.802 106.082C205.195 106.931 204.329 107.599 203.202 108.084C202.093 108.552 200.775 108.786 199.25 108.786ZM214.632 108.786C213.263 108.786 212.067 108.517 211.044 107.98C210.039 107.425 209.259 106.654 208.704 105.666C208.15 104.661 207.872 103.473 207.872 102.104C207.872 100.752 208.15 99.582 208.704 98.594C209.259 97.5887 210.039 96.8173 211.044 96.28C212.067 95.7427 213.263 95.474 214.632 95.474C216.002 95.474 217.189 95.7427 218.194 96.28C219.217 96.8173 220.006 97.5887 220.56 98.594C221.132 99.582 221.418 100.752 221.418 102.104C221.418 103.473 221.132 104.661 220.56 105.666C220.006 106.654 219.217 107.425 218.194 107.98C217.189 108.517 216.002 108.786 214.632 108.786ZM214.632 105.848C215.464 105.848 216.14 105.545 216.66 104.938C217.198 104.331 217.466 103.387 217.466 102.104C217.466 100.839 217.198 99.9113 216.66 99.322C216.14 98.7153 215.464 98.412 214.632 98.412C213.8 98.412 213.124 98.7153 212.604 99.322C212.084 99.9113 211.824 100.839 211.824 102.104C211.824 103.387 212.084 104.331 212.604 104.938C213.124 105.545 213.8 105.848 214.632 105.848ZM223.287 108.5V95.734H227.135V97.606C227.568 96.9127 228.149 96.384 228.877 96.02C229.605 95.656 230.42 95.474 231.321 95.474C232.829 95.474 233.956 95.916 234.701 96.8C235.446 97.6667 235.819 99.01 235.819 100.83V108.5H231.893V101.012C231.893 100.128 231.728 99.4953 231.399 99.114C231.07 98.7153 230.584 98.516 229.943 98.516C229.111 98.516 228.444 98.776 227.941 99.296C227.456 99.816 227.213 100.509 227.213 101.376V108.5H223.287ZM244.366 113.466C243.135 113.466 241.982 113.336 240.908 113.076C239.85 112.816 238.923 112.409 238.126 111.854L239.192 109.176C239.885 109.609 240.665 109.939 241.532 110.164C242.416 110.407 243.248 110.528 244.028 110.528C246.246 110.528 247.356 109.505 247.356 107.46V106.004C247.009 106.663 246.463 107.191 245.718 107.59C244.972 107.989 244.158 108.188 243.274 108.188C242.13 108.188 241.133 107.928 240.284 107.408C239.434 106.871 238.776 106.125 238.308 105.172C237.84 104.219 237.606 103.101 237.606 101.818C237.606 100.553 237.84 99.4433 238.308 98.49C238.776 97.5367 239.434 96.8 240.284 96.28C241.133 95.7427 242.13 95.474 243.274 95.474C244.192 95.474 245.016 95.6733 245.744 96.072C246.472 96.4707 247.009 96.9993 247.356 97.658V95.734H251.178V107.018C251.178 109.167 250.597 110.779 249.436 111.854C248.274 112.929 246.584 113.466 244.366 113.466ZM244.444 105.25C245.31 105.25 246.004 104.947 246.524 104.34C247.061 103.733 247.33 102.893 247.33 101.818C247.33 100.743 247.061 99.9113 246.524 99.322C246.004 98.7153 245.31 98.412 244.444 98.412C243.56 98.412 242.858 98.7153 242.338 99.322C241.818 99.9113 241.558 100.743 241.558 101.818C241.558 102.893 241.818 103.733 242.338 104.34C242.858 104.947 243.56 105.25 244.444 105.25Z"
        fill="white" />
    <defs>
        <linearGradient id="paint0_linear_1916_8877" x1="164" y1="0" x2="164" y2="200" gradientUnits="userSpaceOnUse">
            <stop stop-color="#F780FB" />
            <stop offset="1" stop-color="#E174E4" stop-opacity="0" />
        </linearGradient>
    </defs>
</svg>