<svg width="160" height="153" viewBox="0 0 160 153" fill="none" xmlns="http://www.w3.org/2000/svg">
    <g filter="url(#filter0_ii_1357_4054)">
        <g clip-path="url(#clip0_1357_4054)">
            <rect width="160" height="153" rx="16" fill="#FEF2FF" fill-opacity="0.01" />
            <path
                d="M128.43 40.4282C131.122 44.9987 139.196 38.4694 137.85 35.2047C136.504 31.9401 125.739 35.8577 128.43 40.4282Z"
                fill="url(#paint0_linear_1357_4054)" />
            <rect x="136" y="13" width="2" height="24" rx="1" fill="url(#paint1_linear_1357_4054)" />
            <path
                d="M80.4302 114.428C83.1217 118.999 91.1956 112.469 89.8499 109.205C88.5042 105.94 77.7387 109.858 80.4302 114.428Z"
                fill="url(#paint2_linear_1357_4054)" />
            <rect x="88" y="87" width="2" height="24" rx="1" fill="url(#paint3_linear_1357_4054)" />
            <path
                d="M24.6699 45.6748C29.2093 50.4145 36.585 40.1149 34.0133 36.5586C31.4416 33.0023 20.1304 40.9351 24.6699 45.6748Z"
                fill="url(#paint4_linear_1357_4054)" />
            <rect x="25.4637" y="10.3518" width="2" height="30" rx="1" transform="rotate(-14.2828 25.4637 10.3518)"
                fill="url(#paint5_linear_1357_4054)" />
            <path
                d="M46.0611 156.523C47.8927 162.825 59.1967 157.106 58.5621 152.764C57.9275 148.421 44.2295 150.221 46.0611 156.523Z"
                fill="url(#paint6_linear_1357_4054)" />
            <rect x="63.1071" y="125.575" width="2" height="30" rx="1" transform="rotate(13.2755 63.1071 125.575)"
                fill="url(#paint7_linear_1357_4054)" />
            <path
                d="M54.7989 59.4186C57.5683 66.0569 69.0082 58.3176 67.7752 53.6602C66.5421 49.0029 52.0295 52.7803 54.7989 59.4186Z"
                fill="url(#paint8_linear_1357_4054)" />
            <path
                d="M86.5956 63.0203C89.365 69.6586 100.805 61.9193 99.5718 57.2619C98.3388 52.6046 83.8262 56.3819 86.5956 63.0203Z"
                fill="url(#paint9_linear_1357_4054)" />
            <path fill-rule="evenodd" clip-rule="evenodd"
                d="M70.8447 17.117C70.2745 17.0524 69.7598 17.4623 69.6952 18.0325L65.4901 55.1559C65.4225 55.7523 65.8512 56.2905 66.4475 56.358C67.0439 56.4255 67.5821 55.9969 67.6496 55.4006L70.8109 27.492C70.9353 26.3945 71.9258 25.6055 73.0233 25.7298L99.282 28.7043C100.38 28.8286 101.168 29.8191 101.044 30.9167L97.8828 58.8252C97.8153 59.4215 98.2439 59.9597 98.8403 60.0273C99.4366 60.0948 99.9748 59.6662 100.042 59.0698L103.429 29.174C103.429 29.174 103.429 29.174 103.429 29.174C103.429 29.174 103.429 29.174 103.429 29.174L103.663 27.109C103.663 27.109 103.663 27.109 103.663 27.109C103.663 27.109 103.663 27.1089 103.663 27.1089L104.247 21.9544C104.247 21.9517 104.247 21.9491 104.247 21.9464C104.248 21.9437 104.248 21.9411 104.248 21.9384C104.312 21.3726 103.898 20.861 103.332 20.7969L102.205 20.6693L71.9717 17.2446L70.8447 17.117ZM101.746 24.7216C101.87 23.624 101.081 22.6335 99.9837 22.5092L73.7251 19.5348C72.6275 19.4104 71.637 20.1994 71.5127 21.2969L71.4951 21.4524C71.3708 22.5499 72.1597 23.5405 73.2573 23.6648L99.5159 26.6392C100.613 26.7635 101.604 25.9746 101.728 24.877L101.746 24.7216Z"
                fill="url(#paint10_linear_1357_4054)" />
            <path
                d="M93.7989 133.419C96.5683 140.057 108.008 132.318 106.775 127.66C105.542 123.003 91.0295 126.78 93.7989 133.419Z"
                fill="url(#paint11_linear_1357_4054)" />
            <path
                d="M125.596 137.02C128.365 143.659 139.805 135.919 138.572 131.262C137.339 126.605 122.826 130.382 125.596 137.02Z"
                fill="url(#paint12_linear_1357_4054)" />
            <path fill-rule="evenodd" clip-rule="evenodd"
                d="M109.845 91.117C109.274 91.0524 108.76 91.4623 108.695 92.0325L104.49 129.156C104.423 129.752 104.851 130.29 105.448 130.358C106.044 130.426 106.582 129.997 106.65 129.401L109.811 101.492C109.935 100.394 110.926 99.6055 112.023 99.7298L138.282 102.704C139.38 102.829 140.168 103.819 140.044 104.917L136.883 132.825C136.815 133.422 137.244 133.96 137.84 134.027C138.437 134.095 138.975 133.666 139.042 133.07L142.429 103.174C142.429 103.174 142.429 103.174 142.429 103.174C142.429 103.174 142.429 103.174 142.429 103.174L142.663 101.109C142.663 101.109 142.663 101.109 142.663 101.109C142.663 101.109 142.663 101.109 142.663 101.109L143.247 95.9544C143.247 95.9517 143.247 95.9491 143.247 95.9464C143.248 95.9437 143.248 95.9411 143.248 95.9384C143.312 95.3726 142.898 94.861 142.332 94.7969L141.205 94.6693L110.972 91.2446L109.845 91.117ZM140.746 98.7216C140.87 97.624 140.081 96.6335 138.984 96.5092L112.725 93.5348C111.628 93.4104 110.637 94.1994 110.513 95.2969L110.495 95.4524C110.371 96.5499 111.16 97.5405 112.257 97.6648L138.516 100.639C139.613 100.764 140.604 99.9746 140.728 98.877L140.746 98.7216Z"
                fill="url(#paint13_linear_1357_4054)" />
            <path
                d="M9.46103 131.443C14.5714 136.504 22.1529 124.959 19.2228 121.135C16.2927 117.311 4.3507 126.381 9.46103 131.443Z"
                fill="url(#paint14_linear_1357_4054)" />
            <path
                d="M40.1957 122.533C45.306 127.595 52.8875 116.05 49.9574 112.225C47.0273 108.401 35.0853 117.471 40.1957 122.533Z"
                fill="url(#paint15_linear_1357_4054)" />
            <path fill-rule="evenodd" clip-rule="evenodd"
                d="M7.99573 86.2238C7.44452 86.3836 7.12721 86.96 7.287 87.5112L17.6891 123.395C17.8562 123.971 18.4589 124.303 19.0353 124.136C19.6118 123.969 19.9436 123.366 19.7765 122.79L11.9564 95.8132C11.6489 94.7523 12.2596 93.6429 13.3205 93.3354L38.7021 85.9777C39.763 85.6701 40.8723 86.2808 41.1799 87.3417L48.9999 114.318C49.167 114.895 49.7697 115.226 50.3462 115.059C50.9226 114.892 51.2544 114.289 51.0873 113.713L42.7104 84.8157C42.7104 84.8157 42.7104 84.8157 42.7104 84.8157C42.7104 84.8157 42.7104 84.8157 42.7104 84.8157L42.1318 82.8196C42.1318 82.8196 42.1318 82.8196 42.1318 82.8196C42.1318 82.8196 42.1318 82.8196 42.1318 82.8196L40.6874 77.8372C40.6867 77.8347 40.686 77.8321 40.6852 77.8295C40.6845 77.8269 40.6837 77.8244 40.683 77.8218C40.5244 77.2749 39.9448 76.9622 39.3979 77.1208L38.3085 77.4366L9.08507 85.908L7.99573 86.2238ZM39.444 81.3536C39.1364 80.2927 38.0271 79.682 36.9662 79.9895L11.5846 87.3472C10.5237 87.6548 9.91301 88.7641 10.2205 89.825L10.2641 89.9753C10.5716 91.0362 11.681 91.6469 12.7419 91.3393L38.1235 83.9816C39.1844 83.674 39.7951 82.5647 39.4875 81.5038L39.444 81.3536Z"
                fill="url(#paint16_linear_1357_4054)" />
            <g filter="url(#filter1_b_1357_4054)">
                <path d="M0 63.432C82 79.4312 118.5 42.9311 167 63.432V155.432H0V63.432Z" fill="#251925"
                    fill-opacity="0.1" />
            </g>
            <path
                d="M31.3859 89.176C30.1166 89.176 29.0393 88.936 28.1539 88.456C27.2793 87.976 26.6126 87.304 26.1539 86.44C25.6953 85.576 25.4659 84.5627 25.4659 83.4C25.4659 82.2053 25.7006 81.1707 26.1699 80.296C26.6499 79.4213 27.3379 78.744 28.2339 78.264C29.1299 77.784 30.2073 77.544 31.4659 77.544C32.2553 77.544 33.0019 77.656 33.7059 77.88C34.4206 78.104 35.0019 78.4027 35.4499 78.776L34.6499 80.712C34.1593 80.3493 33.6579 80.0933 33.1459 79.944C32.6339 79.784 32.0793 79.704 31.4819 79.704C30.3406 79.704 29.4819 80.024 28.9059 80.664C28.3406 81.2933 28.0579 82.2053 28.0579 83.4C28.0579 84.6053 28.3459 85.5173 28.9219 86.136C29.5086 86.7547 30.3726 87.064 31.5139 87.064C32.1219 87.064 32.7619 86.968 33.4339 86.776V84.568H31.0019V82.776H35.4819V88.312C34.9273 88.5893 34.2873 88.8027 33.5619 88.952C32.8366 89.1013 32.1113 89.176 31.3859 89.176ZM41.2289 89.176C40.3009 89.176 39.5009 89.0107 38.8289 88.68C38.1676 88.3387 37.6556 87.864 37.2929 87.256C36.9409 86.6373 36.7649 85.912 36.7649 85.08C36.7649 84.2693 36.9356 83.56 37.2769 82.952C37.6289 82.3333 38.1036 81.8533 38.7009 81.512C39.3089 81.16 40.0076 80.984 40.7969 80.984C41.9383 80.984 42.8449 81.3467 43.5169 82.072C44.1889 82.7867 44.5249 83.7573 44.5249 84.984V85.592H39.0689C39.1543 86.2107 39.3783 86.664 39.7409 86.952C40.1143 87.2293 40.6263 87.368 41.2769 87.368C41.7036 87.368 42.1356 87.304 42.5729 87.176C43.0103 87.048 43.4049 86.8507 43.7569 86.584L44.3969 88.2C44.0023 88.4987 43.5169 88.7387 42.9409 88.92C42.3756 89.0907 41.8049 89.176 41.2289 89.176ZM40.8929 82.584C40.3809 82.584 39.9649 82.7387 39.6449 83.048C39.3356 83.3573 39.1436 83.7893 39.0689 84.344H42.5249C42.4609 83.1707 41.9169 82.584 40.8929 82.584ZM45.6102 89V81.144H47.9782V82.296C48.2449 81.8693 48.6022 81.544 49.0502 81.32C49.4982 81.096 49.9995 80.984 50.5542 80.984C51.4822 80.984 52.1755 81.256 52.6342 81.8C53.0929 82.3333 53.3222 83.16 53.3222 84.28V89H50.9062V84.392C50.9062 83.848 50.8049 83.4587 50.6022 83.224C50.3995 82.9787 50.1009 82.856 49.7062 82.856C49.1942 82.856 48.7835 83.016 48.4742 83.336C48.1755 83.656 48.0262 84.0827 48.0262 84.616V89H45.6102ZM58.8858 89.176C57.9578 89.176 57.1578 89.0107 56.4858 88.68C55.8245 88.3387 55.3125 87.864 54.9498 87.256C54.5978 86.6373 54.4218 85.912 54.4218 85.08C54.4218 84.2693 54.5925 83.56 54.9338 82.952C55.2858 82.3333 55.7605 81.8533 56.3578 81.512C56.9658 81.16 57.6645 80.984 58.4538 80.984C59.5951 80.984 60.5018 81.3467 61.1738 82.072C61.8458 82.7867 62.1818 83.7573 62.1818 84.984V85.592H56.7258C56.8111 86.2107 57.0351 86.664 57.3978 86.952C57.7711 87.2293 58.2831 87.368 58.9338 87.368C59.3605 87.368 59.7925 87.304 60.2298 87.176C60.6671 87.048 61.0618 86.8507 61.4138 86.584L62.0538 88.2C61.6591 88.4987 61.1738 88.7387 60.5978 88.92C60.0325 89.0907 59.4618 89.176 58.8858 89.176ZM58.5498 82.584C58.0378 82.584 57.6218 82.7387 57.3018 83.048C56.9925 83.3573 56.8005 83.7893 56.7258 84.344H60.1818C60.1178 83.1707 59.5738 82.584 58.5498 82.584ZM63.2671 89V81.144H65.6351V82.504C66.0084 81.5867 66.8084 81.08 68.0351 80.984L68.7391 80.936L68.8831 82.968L67.5231 83.112C66.3284 83.2293 65.7311 83.8373 65.7311 84.936V89H63.2671ZM72.1187 89.176C71.532 89.176 71.0147 89.064 70.5667 88.84C70.1187 88.616 69.7614 88.312 69.4947 87.928C69.2387 87.544 69.1107 87.112 69.1107 86.632C69.1107 86.0667 69.26 85.6133 69.5587 85.272C69.8574 84.9307 70.3427 84.6907 71.0147 84.552C71.6867 84.4027 72.5774 84.328 73.6867 84.328H74.2627V84.056C74.2627 83.5867 74.156 83.256 73.9427 83.064C73.7294 82.8613 73.3667 82.76 72.8547 82.76C72.428 82.76 71.9747 82.8293 71.4947 82.968C71.0254 83.096 70.556 83.2933 70.0867 83.56L69.4307 81.944C69.708 81.7627 70.044 81.5973 70.4387 81.448C70.844 81.2987 71.2654 81.1867 71.7027 81.112C72.14 81.0267 72.556 80.984 72.9507 80.984C74.1667 80.984 75.0734 81.2613 75.6707 81.816C76.268 82.36 76.5667 83.208 76.5667 84.36V89H74.3107V87.816C74.1507 88.232 73.8787 88.5627 73.4947 88.808C73.1214 89.0533 72.6627 89.176 72.1187 89.176ZM72.6627 87.56C73.1107 87.56 73.4894 87.4053 73.7987 87.096C74.108 86.7867 74.2627 86.3867 74.2627 85.896V85.576H73.7027C72.8814 85.576 72.3 85.6507 71.9587 85.8C71.6174 85.9387 71.4467 86.184 71.4467 86.536C71.4467 86.8347 71.548 87.08 71.7507 87.272C71.964 87.464 72.268 87.56 72.6627 87.56ZM81.9049 89.176C79.6969 89.176 78.5929 88.104 78.5929 85.96V82.952H77.1049V81.144H78.5929V78.84H81.0089V81.144H83.3289V82.952H81.0089V85.864C81.0089 86.312 81.1103 86.648 81.3129 86.872C81.5263 87.096 81.8623 87.208 82.3209 87.208C82.4596 87.208 82.6036 87.192 82.7529 87.16C82.9129 87.128 83.0836 87.0853 83.2649 87.032L83.6169 88.792C83.3929 88.9093 83.1263 89 82.8169 89.064C82.5076 89.1387 82.2036 89.176 81.9049 89.176ZM88.1996 89.176C87.2716 89.176 86.4716 89.0107 85.7996 88.68C85.1382 88.3387 84.6262 87.864 84.2636 87.256C83.9116 86.6373 83.7356 85.912 83.7356 85.08C83.7356 84.2693 83.9062 83.56 84.2476 82.952C84.5996 82.3333 85.0742 81.8533 85.6716 81.512C86.2796 81.16 86.9782 80.984 87.7676 80.984C88.9089 80.984 89.8156 81.3467 90.4876 82.072C91.1596 82.7867 91.4956 83.7573 91.4956 84.984V85.592H86.0396C86.1249 86.2107 86.3489 86.664 86.7116 86.952C87.0849 87.2293 87.5969 87.368 88.2476 87.368C88.6742 87.368 89.1062 87.304 89.5436 87.176C89.9809 87.048 90.3756 86.8507 90.7276 86.584L91.3676 88.2C90.9729 88.4987 90.4876 88.7387 89.9116 88.92C89.3462 89.0907 88.7756 89.176 88.1996 89.176ZM87.8636 82.584C87.3516 82.584 86.9356 82.7387 86.6156 83.048C86.3062 83.3573 86.1142 83.7893 86.0396 84.344H89.4956C89.4316 83.1707 88.8876 82.584 87.8636 82.584ZM99.6099 89V79.768H95.8819V77.72H105.818V79.768H102.09V89H99.6099ZM105.238 89V81.144H107.606V82.504C107.979 81.5867 108.779 81.08 110.006 80.984L110.71 80.936L110.854 82.968L109.494 83.112C108.299 83.2293 107.702 83.8373 107.702 84.936V89H105.238ZM114.089 89.176C113.503 89.176 112.985 89.064 112.537 88.84C112.089 88.616 111.732 88.312 111.465 87.928C111.209 87.544 111.081 87.112 111.081 86.632C111.081 86.0667 111.231 85.6133 111.529 85.272C111.828 84.9307 112.313 84.6907 112.985 84.552C113.657 84.4027 114.548 84.328 115.657 84.328H116.233V84.056C116.233 83.5867 116.127 83.256 115.913 83.064C115.7 82.8613 115.337 82.76 114.825 82.76C114.399 82.76 113.945 82.8293 113.465 82.968C112.996 83.096 112.527 83.2933 112.057 83.56L111.401 81.944C111.679 81.7627 112.015 81.5973 112.409 81.448C112.815 81.2987 113.236 81.1867 113.673 81.112C114.111 81.0267 114.527 80.984 114.921 80.984C116.137 80.984 117.044 81.2613 117.641 81.816C118.239 82.36 118.537 83.208 118.537 84.36V89H116.281V87.816C116.121 88.232 115.849 88.5627 115.465 88.808C115.092 89.0533 114.633 89.176 114.089 89.176ZM114.633 87.56C115.081 87.56 115.46 87.4053 115.769 87.096C116.079 86.7867 116.233 86.3867 116.233 85.896V85.576H115.673C114.852 85.576 114.271 85.6507 113.929 85.8C113.588 85.9387 113.417 86.184 113.417 86.536C113.417 86.8347 113.519 87.08 113.721 87.272C113.935 87.464 114.239 87.56 114.633 87.56ZM123.844 89.176C122.99 89.176 122.244 89.0107 121.604 88.68C120.974 88.3387 120.489 87.8587 120.148 87.24C119.806 86.6213 119.636 85.8907 119.636 85.048C119.636 84.2053 119.806 83.48 120.148 82.872C120.489 82.264 120.974 81.8 121.604 81.48C122.244 81.1493 122.99 80.984 123.844 80.984C124.345 80.984 124.852 81.0587 125.364 81.208C125.876 81.3573 126.292 81.5707 126.612 81.848L125.94 83.512C125.673 83.2987 125.374 83.1333 125.044 83.016C124.713 82.888 124.393 82.824 124.084 82.824C123.454 82.824 122.964 83.0213 122.612 83.416C122.27 83.8 122.1 84.3493 122.1 85.064C122.1 85.768 122.27 86.3227 122.612 86.728C122.964 87.1227 123.454 87.32 124.084 87.32C124.382 87.32 124.697 87.2613 125.028 87.144C125.369 87.0267 125.673 86.856 125.94 86.632L126.612 88.296C126.292 88.5733 125.876 88.792 125.364 88.952C124.852 89.1013 124.345 89.176 123.844 89.176ZM127.34 89V77.72H129.756V84.392H129.788L132.684 81.144H135.548L132.22 84.904L135.708 89H132.796L129.788 85.608H129.756V89H127.34Z"
                fill="white" />
            <path
                d="M13.488 115.126C12.5173 115.126 11.6867 114.921 10.996 114.51C10.3053 114.099 9.77333 113.516 9.4 112.76C9.036 112.004 8.854 111.103 8.854 110.058C8.854 109.274 8.95667 108.574 9.162 107.958C9.37667 107.333 9.68 106.805 10.072 106.376C10.4733 105.937 10.9633 105.601 11.542 105.368C12.1207 105.125 12.7693 105.004 13.488 105.004C14.0667 105.004 14.6173 105.088 15.14 105.256C15.6627 105.415 16.1153 105.653 16.498 105.97C16.6193 106.063 16.6987 106.171 16.736 106.292C16.7827 106.404 16.7873 106.516 16.75 106.628C16.722 106.731 16.666 106.819 16.582 106.894C16.5073 106.959 16.414 106.992 16.302 106.992C16.19 106.992 16.064 106.945 15.924 106.852C15.588 106.581 15.2193 106.381 14.818 106.25C14.4167 106.119 13.9827 106.054 13.516 106.054C12.7787 106.054 12.1533 106.213 11.64 106.53C11.1267 106.838 10.7393 107.291 10.478 107.888C10.2167 108.485 10.086 109.209 10.086 110.058C10.086 110.907 10.2167 111.635 10.478 112.242C10.7393 112.839 11.1267 113.297 11.64 113.614C12.1533 113.922 12.7787 114.076 13.516 114.076C13.9733 114.076 14.4073 114.011 14.818 113.88C15.2287 113.74 15.6067 113.535 15.952 113.264C16.092 113.171 16.218 113.129 16.33 113.138C16.442 113.138 16.5353 113.171 16.61 113.236C16.6847 113.301 16.736 113.385 16.764 113.488C16.8013 113.591 16.8013 113.698 16.764 113.81C16.736 113.922 16.666 114.02 16.554 114.104C16.162 114.44 15.7 114.697 15.168 114.874C14.6453 115.042 14.0853 115.126 13.488 115.126ZM19.0579 115.098C18.8713 115.098 18.7266 115.047 18.6239 114.944C18.5306 114.841 18.4839 114.697 18.4839 114.51V108.672C18.4839 108.485 18.5306 108.345 18.6239 108.252C18.7173 108.149 18.8526 108.098 19.0299 108.098C19.2073 108.098 19.3426 108.149 19.4359 108.252C19.5386 108.345 19.5899 108.485 19.5899 108.672V109.806H19.4499C19.5993 109.255 19.8839 108.831 20.3039 108.532C20.7239 108.233 21.2419 108.075 21.8579 108.056C21.9979 108.047 22.1099 108.079 22.1939 108.154C22.2779 108.219 22.3246 108.336 22.3339 108.504C22.3433 108.663 22.3059 108.789 22.2219 108.882C22.1379 108.975 22.0073 109.031 21.8299 109.05L21.6059 109.078C20.9713 109.134 20.4813 109.339 20.1359 109.694C19.7999 110.039 19.6319 110.515 19.6319 111.122V114.51C19.6319 114.697 19.5806 114.841 19.4779 114.944C19.3846 115.047 19.2446 115.098 19.0579 115.098ZM26.4855 115.126C25.7668 115.126 25.1461 114.986 24.6235 114.706C24.1101 114.417 23.7088 114.011 23.4195 113.488C23.1395 112.965 22.9995 112.34 22.9995 111.612C22.9995 110.903 23.1395 110.287 23.4195 109.764C23.6995 109.232 24.0821 108.817 24.5675 108.518C25.0621 108.219 25.6315 108.07 26.2755 108.07C26.7328 108.07 27.1435 108.149 27.5075 108.308C27.8715 108.457 28.1795 108.677 28.4315 108.966C28.6928 109.255 28.8888 109.605 29.0195 110.016C29.1595 110.427 29.2295 110.889 29.2295 111.402C29.2295 111.551 29.1875 111.663 29.1035 111.738C29.0195 111.803 28.8981 111.836 28.7395 111.836H23.8675V111.094H28.4735L28.2495 111.276C28.2495 110.772 28.1748 110.347 28.0255 110.002C27.8761 109.647 27.6568 109.377 27.3675 109.19C27.0875 109.003 26.7328 108.91 26.3035 108.91C25.8275 108.91 25.4215 109.022 25.0855 109.246C24.7588 109.461 24.5115 109.764 24.3435 110.156C24.1755 110.539 24.0915 110.987 24.0915 111.5V111.584C24.0915 112.443 24.2968 113.096 24.7075 113.544C25.1275 113.992 25.7201 114.216 26.4855 114.216C26.8028 114.216 27.1155 114.174 27.4235 114.09C27.7408 114.006 28.0488 113.866 28.3475 113.67C28.4781 113.586 28.5948 113.549 28.6975 113.558C28.8095 113.558 28.8981 113.591 28.9635 113.656C29.0288 113.712 29.0708 113.787 29.0895 113.88C29.1175 113.964 29.1081 114.057 29.0615 114.16C29.0241 114.263 28.9448 114.351 28.8235 114.426C28.5155 114.65 28.1515 114.823 27.7315 114.944C27.3115 115.065 26.8961 115.126 26.4855 115.126ZM33.0126 115.126C32.546 115.126 32.126 115.037 31.7526 114.86C31.3886 114.673 31.0993 114.421 30.8846 114.104C30.67 113.787 30.5626 113.432 30.5626 113.04C30.5626 112.536 30.6886 112.139 30.9406 111.85C31.202 111.561 31.6266 111.355 32.2146 111.234C32.812 111.113 33.624 111.052 34.6506 111.052H35.2806V111.794H34.6646C33.9086 111.794 33.3113 111.831 32.8726 111.906C32.4433 111.971 32.14 112.088 31.9626 112.256C31.7946 112.424 31.7106 112.662 31.7106 112.97C31.7106 113.353 31.8413 113.665 32.1026 113.908C32.3733 114.151 32.7373 114.272 33.1946 114.272C33.568 114.272 33.8946 114.183 34.1746 114.006C34.464 113.829 34.688 113.586 34.8466 113.278C35.0146 112.97 35.0986 112.615 35.0986 112.214V110.618C35.0986 110.039 34.982 109.624 34.7486 109.372C34.5153 109.111 34.1326 108.98 33.6006 108.98C33.274 108.98 32.9473 109.022 32.6206 109.106C32.294 109.19 31.9486 109.325 31.5846 109.512C31.454 109.577 31.342 109.601 31.2486 109.582C31.1553 109.554 31.0806 109.503 31.0246 109.428C30.9686 109.353 30.936 109.269 30.9266 109.176C30.9173 109.073 30.936 108.975 30.9826 108.882C31.0386 108.789 31.1226 108.714 31.2346 108.658C31.6453 108.453 32.0513 108.303 32.4526 108.21C32.854 108.117 33.2366 108.07 33.6006 108.07C34.1886 108.07 34.674 108.168 35.0566 108.364C35.4393 108.551 35.724 108.84 35.9106 109.232C36.0973 109.615 36.1906 110.109 36.1906 110.716V114.51C36.1906 114.697 36.144 114.841 36.0506 114.944C35.9666 115.047 35.8406 115.098 35.6726 115.098C35.4953 115.098 35.36 115.047 35.2666 114.944C35.1733 114.841 35.1266 114.697 35.1266 114.51V113.418H35.2526C35.178 113.773 35.0333 114.076 34.8186 114.328C34.6133 114.58 34.3566 114.776 34.0486 114.916C33.7406 115.056 33.3953 115.126 33.0126 115.126ZM41.0245 115.126C40.4925 115.126 40.0445 115.033 39.6805 114.846C39.3258 114.65 39.0598 114.37 38.8825 114.006C38.7051 113.633 38.6165 113.18 38.6165 112.648V109.078H37.6785C37.5198 109.078 37.3985 109.041 37.3145 108.966C37.2305 108.882 37.1885 108.77 37.1885 108.63C37.1885 108.49 37.2305 108.383 37.3145 108.308C37.3985 108.233 37.5198 108.196 37.6785 108.196H38.6165V106.586C38.6165 106.399 38.6678 106.259 38.7705 106.166C38.8731 106.063 39.0131 106.012 39.1905 106.012C39.3678 106.012 39.5031 106.063 39.5965 106.166C39.6991 106.259 39.7505 106.399 39.7505 106.586V108.196H41.5145C41.6731 108.196 41.7945 108.233 41.8785 108.308C41.9625 108.383 42.0045 108.49 42.0045 108.63C42.0045 108.77 41.9625 108.882 41.8785 108.966C41.7945 109.041 41.6731 109.078 41.5145 109.078H39.7505V112.536C39.7505 113.068 39.8625 113.474 40.0865 113.754C40.3105 114.025 40.6745 114.16 41.1785 114.16C41.3558 114.16 41.5051 114.141 41.6265 114.104C41.7571 114.067 41.8645 114.048 41.9485 114.048C42.0325 114.039 42.1025 114.067 42.1585 114.132C42.2145 114.197 42.2425 114.309 42.2425 114.468C42.2425 114.58 42.2191 114.683 42.1725 114.776C42.1351 114.869 42.0651 114.935 41.9625 114.972C41.8505 115.009 41.7011 115.042 41.5145 115.07C41.3371 115.107 41.1738 115.126 41.0245 115.126ZM46.1866 115.126C45.468 115.126 44.8473 114.986 44.3246 114.706C43.8113 114.417 43.41 114.011 43.1206 113.488C42.8406 112.965 42.7006 112.34 42.7006 111.612C42.7006 110.903 42.8406 110.287 43.1206 109.764C43.4006 109.232 43.7833 108.817 44.2686 108.518C44.7633 108.219 45.3326 108.07 45.9766 108.07C46.434 108.07 46.8446 108.149 47.2086 108.308C47.5726 108.457 47.8806 108.677 48.1326 108.966C48.394 109.255 48.59 109.605 48.7206 110.016C48.8606 110.427 48.9306 110.889 48.9306 111.402C48.9306 111.551 48.8886 111.663 48.8046 111.738C48.7206 111.803 48.5993 111.836 48.4406 111.836H43.5686V111.094H48.1746L47.9506 111.276C47.9506 110.772 47.876 110.347 47.7266 110.002C47.5773 109.647 47.358 109.377 47.0686 109.19C46.7886 109.003 46.434 108.91 46.0046 108.91C45.5286 108.91 45.1226 109.022 44.7866 109.246C44.46 109.461 44.2126 109.764 44.0446 110.156C43.8766 110.539 43.7926 110.987 43.7926 111.5V111.584C43.7926 112.443 43.998 113.096 44.4086 113.544C44.8286 113.992 45.4213 114.216 46.1866 114.216C46.504 114.216 46.8166 114.174 47.1246 114.09C47.442 114.006 47.75 113.866 48.0486 113.67C48.1793 113.586 48.296 113.549 48.3986 113.558C48.5106 113.558 48.5993 113.591 48.6646 113.656C48.73 113.712 48.772 113.787 48.7906 113.88C48.8186 113.964 48.8093 114.057 48.7626 114.16C48.7253 114.263 48.646 114.351 48.5246 114.426C48.2166 114.65 47.8526 114.823 47.4326 114.944C47.0126 115.065 46.5973 115.126 46.1866 115.126ZM54.7692 115.098C54.5825 115.098 54.4425 115.047 54.3492 114.944C54.2559 114.841 54.2092 114.697 54.2092 114.51V108.672C54.2092 108.485 54.2559 108.345 54.3492 108.252C54.4425 108.149 54.5779 108.098 54.7552 108.098C54.9325 108.098 55.0679 108.149 55.1612 108.252C55.2639 108.345 55.3152 108.485 55.3152 108.672V109.904L55.1612 109.708C55.3385 109.185 55.6232 108.784 56.0152 108.504C56.4165 108.215 56.8925 108.07 57.4432 108.07C58.0219 108.07 58.4885 108.21 58.8432 108.49C59.2072 108.761 59.4499 109.185 59.5712 109.764H59.3612C59.5292 109.241 59.8279 108.831 60.2572 108.532C60.6959 108.224 61.2045 108.07 61.7832 108.07C62.2965 108.07 62.7165 108.168 63.0432 108.364C63.3792 108.56 63.6312 108.859 63.7992 109.26C63.9672 109.652 64.0512 110.151 64.0512 110.758V114.51C64.0512 114.697 63.9999 114.841 63.8972 114.944C63.8039 115.047 63.6639 115.098 63.4772 115.098C63.2999 115.098 63.1599 115.047 63.0572 114.944C62.9639 114.841 62.9172 114.697 62.9172 114.51V110.814C62.9172 110.189 62.8099 109.731 62.5952 109.442C62.3805 109.143 62.0165 108.994 61.5032 108.994C60.9432 108.994 60.4999 109.19 60.1732 109.582C59.8559 109.965 59.6972 110.487 59.6972 111.15V114.51C59.6972 114.697 59.6459 114.841 59.5432 114.944C59.4499 115.047 59.3099 115.098 59.1232 115.098C58.9459 115.098 58.8059 115.047 58.7032 114.944C58.6099 114.841 58.5632 114.697 58.5632 114.51V110.814C58.5632 110.189 58.4512 109.731 58.2272 109.442C58.0125 109.143 57.6532 108.994 57.1492 108.994C56.5892 108.994 56.1459 109.19 55.8192 109.582C55.5019 109.965 55.3432 110.487 55.3432 111.15V114.51C55.3432 114.902 55.1519 115.098 54.7692 115.098ZM68.5794 115.126C68.0288 115.126 67.5714 115.028 67.2074 114.832C66.8528 114.627 66.5821 114.323 66.3954 113.922C66.2181 113.521 66.1294 113.021 66.1294 112.424V108.672C66.1294 108.476 66.1761 108.331 66.2694 108.238C66.3721 108.145 66.5121 108.098 66.6894 108.098C66.8761 108.098 67.0161 108.145 67.1094 108.238C67.2121 108.331 67.2634 108.476 67.2634 108.672V112.41C67.2634 113.007 67.3848 113.455 67.6274 113.754C67.8794 114.043 68.2714 114.188 68.8034 114.188C69.3821 114.188 69.8534 113.992 70.2174 113.6C70.5814 113.208 70.7634 112.695 70.7634 112.06V108.672C70.7634 108.476 70.8101 108.331 70.9034 108.238C71.0061 108.145 71.1508 108.098 71.3374 108.098C71.5148 108.098 71.6501 108.145 71.7434 108.238C71.8461 108.331 71.8974 108.476 71.8974 108.672V114.51C71.8974 114.902 71.7154 115.098 71.3514 115.098C71.1741 115.098 71.0341 115.047 70.9314 114.944C70.8381 114.841 70.7914 114.697 70.7914 114.51V113.236L70.9734 113.432C70.7868 113.983 70.4788 114.403 70.0494 114.692C69.6294 114.981 69.1394 115.126 68.5794 115.126ZM76.3151 115.126C75.8951 115.126 75.4704 115.075 75.0411 114.972C74.6211 114.869 74.2291 114.692 73.8651 114.44C73.7717 114.375 73.7064 114.3 73.6691 114.216C73.6317 114.123 73.6177 114.034 73.6271 113.95C73.6457 113.857 73.6831 113.777 73.7391 113.712C73.8044 113.647 73.8791 113.609 73.9631 113.6C74.0564 113.581 74.1591 113.6 74.2711 113.656C74.6351 113.88 74.9851 114.039 75.3211 114.132C75.6664 114.216 76.0071 114.258 76.3431 114.258C76.8751 114.258 77.2764 114.16 77.5471 113.964C77.8177 113.768 77.9531 113.502 77.9531 113.166C77.9531 112.905 77.8644 112.699 77.6871 112.55C77.5097 112.391 77.2297 112.27 76.8471 112.186L75.5731 111.906C74.9851 111.785 74.5464 111.575 74.2571 111.276C73.9771 110.977 73.8371 110.59 73.8371 110.114C73.8371 109.694 73.9444 109.335 74.1591 109.036C74.3831 108.728 74.6957 108.49 75.0971 108.322C75.4984 108.154 75.9651 108.07 76.4971 108.07C76.9077 108.07 77.2951 108.126 77.6591 108.238C78.0324 108.341 78.3684 108.509 78.6671 108.742C78.7604 108.807 78.8211 108.887 78.8491 108.98C78.8864 109.064 78.8911 109.153 78.8631 109.246C78.8444 109.33 78.8024 109.405 78.7371 109.47C78.6717 109.526 78.5924 109.559 78.4991 109.568C78.4057 109.577 78.3077 109.549 78.2051 109.484C77.9251 109.297 77.6404 109.162 77.3511 109.078C77.0617 108.985 76.7771 108.938 76.4971 108.938C75.9744 108.938 75.5777 109.041 75.3071 109.246C75.0364 109.451 74.9011 109.722 74.9011 110.058C74.9011 110.319 74.9851 110.534 75.1531 110.702C75.3211 110.87 75.5824 110.991 75.9371 111.066L77.2111 111.332C77.8177 111.463 78.2704 111.673 78.5691 111.962C78.8771 112.242 79.0311 112.625 79.0311 113.11C79.0311 113.726 78.7837 114.216 78.2891 114.58C77.7944 114.944 77.1364 115.126 76.3151 115.126ZM81.3193 115.07C81.1326 115.07 80.9926 115.019 80.8993 114.916C80.806 114.804 80.7593 114.65 80.7593 114.454V108.728C80.7593 108.532 80.806 108.383 80.8993 108.28C80.9926 108.177 81.1326 108.126 81.3193 108.126C81.4966 108.126 81.6366 108.177 81.7393 108.28C81.842 108.383 81.8933 108.532 81.8933 108.728V114.454C81.8933 114.65 81.842 114.804 81.7393 114.916C81.646 115.019 81.506 115.07 81.3193 115.07ZM81.3193 106.558C81.086 106.558 80.904 106.497 80.7733 106.376C80.6426 106.245 80.5773 106.073 80.5773 105.858C80.5773 105.634 80.6426 105.466 80.7733 105.354C80.904 105.233 81.086 105.172 81.3193 105.172C81.562 105.172 81.744 105.233 81.8653 105.354C81.996 105.466 82.0613 105.634 82.0613 105.858C82.0613 106.073 81.996 106.245 81.8653 106.376C81.744 106.497 81.562 106.558 81.3193 106.558ZM86.8972 115.126C86.2159 115.126 85.6279 114.977 85.1332 114.678C84.6386 114.379 84.2559 113.964 83.9852 113.432C83.7239 112.891 83.5932 112.265 83.5932 111.556C83.5932 111.015 83.6679 110.529 83.8172 110.1C83.9666 109.671 84.1859 109.307 84.4752 109.008C84.7646 108.7 85.1099 108.467 85.5112 108.308C85.9219 108.149 86.3839 108.07 86.8972 108.07C87.2332 108.07 87.5832 108.121 87.9472 108.224C88.3112 108.327 88.6426 108.504 88.9412 108.756C89.0346 108.821 89.0952 108.901 89.1232 108.994C89.1512 109.087 89.1512 109.181 89.1232 109.274C89.0952 109.358 89.0486 109.433 88.9832 109.498C88.9179 109.554 88.8339 109.587 88.7312 109.596C88.6379 109.605 88.5399 109.573 88.4372 109.498C88.1946 109.311 87.9472 109.181 87.6952 109.106C87.4432 109.031 87.2006 108.994 86.9672 108.994C86.6032 108.994 86.2859 109.055 86.0152 109.176C85.7446 109.288 85.5159 109.451 85.3292 109.666C85.1426 109.881 84.9979 110.147 84.8952 110.464C84.8019 110.781 84.7552 111.15 84.7552 111.57C84.7552 112.382 84.9466 113.026 85.3292 113.502C85.7119 113.969 86.2579 114.202 86.9672 114.202C87.2006 114.202 87.4386 114.165 87.6812 114.09C87.9332 114.015 88.1852 113.885 88.4372 113.698C88.5399 113.623 88.6379 113.591 88.7312 113.6C88.8246 113.609 88.9039 113.647 88.9692 113.712C89.0346 113.768 89.0766 113.843 89.0952 113.936C89.1232 114.029 89.1232 114.123 89.0952 114.216C89.0672 114.3 89.0066 114.375 88.9132 114.44C88.6146 114.683 88.2879 114.86 87.9332 114.972C87.5786 115.075 87.2332 115.126 86.8972 115.126ZM96.8331 115.126C96.3011 115.126 95.8531 115.033 95.4891 114.846C95.1344 114.65 94.8684 114.37 94.6911 114.006C94.5137 113.633 94.4251 113.18 94.4251 112.648V109.078H93.4871C93.3284 109.078 93.2071 109.041 93.1231 108.966C93.0391 108.882 92.9971 108.77 92.9971 108.63C92.9971 108.49 93.0391 108.383 93.1231 108.308C93.2071 108.233 93.3284 108.196 93.4871 108.196H94.4251V106.586C94.4251 106.399 94.4764 106.259 94.5791 106.166C94.6817 106.063 94.8217 106.012 94.9991 106.012C95.1764 106.012 95.3117 106.063 95.4051 106.166C95.5077 106.259 95.5591 106.399 95.5591 106.586V108.196H97.3231C97.4817 108.196 97.6031 108.233 97.6871 108.308C97.7711 108.383 97.8131 108.49 97.8131 108.63C97.8131 108.77 97.7711 108.882 97.6871 108.966C97.6031 109.041 97.4817 109.078 97.3231 109.078H95.5591V112.536C95.5591 113.068 95.6711 113.474 95.8951 113.754C96.1191 114.025 96.4831 114.16 96.9871 114.16C97.1644 114.16 97.3137 114.141 97.4351 114.104C97.5657 114.067 97.6731 114.048 97.7571 114.048C97.8411 114.039 97.9111 114.067 97.9671 114.132C98.0231 114.197 98.0511 114.309 98.0511 114.468C98.0511 114.58 98.0277 114.683 97.9811 114.776C97.9437 114.869 97.8737 114.935 97.7711 114.972C97.6591 115.009 97.5097 115.042 97.3231 115.07C97.1457 115.107 96.9824 115.126 96.8331 115.126ZM99.5716 115.098C99.3849 115.098 99.2403 115.047 99.1376 114.944C99.0443 114.841 98.9976 114.697 98.9976 114.51V108.672C98.9976 108.485 99.0443 108.345 99.1376 108.252C99.2309 108.149 99.3663 108.098 99.5436 108.098C99.7209 108.098 99.8563 108.149 99.9496 108.252C100.052 108.345 100.104 108.485 100.104 108.672V109.806H99.9636C100.113 109.255 100.398 108.831 100.818 108.532C101.238 108.233 101.756 108.075 102.372 108.056C102.512 108.047 102.624 108.079 102.708 108.154C102.792 108.219 102.838 108.336 102.848 108.504C102.857 108.663 102.82 108.789 102.736 108.882C102.652 108.975 102.521 109.031 102.344 109.05L102.12 109.078C101.485 109.134 100.995 109.339 100.65 109.694C100.314 110.039 100.146 110.515 100.146 111.122V114.51C100.146 114.697 100.094 114.841 99.9916 114.944C99.8983 115.047 99.7583 115.098 99.5716 115.098ZM106.089 115.126C105.622 115.126 105.202 115.037 104.829 114.86C104.465 114.673 104.175 114.421 103.961 114.104C103.746 113.787 103.639 113.432 103.639 113.04C103.639 112.536 103.765 112.139 104.017 111.85C104.278 111.561 104.703 111.355 105.291 111.234C105.888 111.113 106.7 111.052 107.727 111.052H108.357V111.794H107.741C106.985 111.794 106.387 111.831 105.949 111.906C105.519 111.971 105.216 112.088 105.039 112.256C104.871 112.424 104.787 112.662 104.787 112.97C104.787 113.353 104.917 113.665 105.179 113.908C105.449 114.151 105.813 114.272 106.271 114.272C106.644 114.272 106.971 114.183 107.251 114.006C107.54 113.829 107.764 113.586 107.923 113.278C108.091 112.97 108.175 112.615 108.175 112.214V110.618C108.175 110.039 108.058 109.624 107.825 109.372C107.591 109.111 107.209 108.98 106.677 108.98C106.35 108.98 106.023 109.022 105.697 109.106C105.37 109.19 105.025 109.325 104.661 109.512C104.53 109.577 104.418 109.601 104.325 109.582C104.231 109.554 104.157 109.503 104.101 109.428C104.045 109.353 104.012 109.269 104.003 109.176C103.993 109.073 104.012 108.975 104.059 108.882C104.115 108.789 104.199 108.714 104.311 108.658C104.721 108.453 105.127 108.303 105.529 108.21C105.93 108.117 106.313 108.07 106.677 108.07C107.265 108.07 107.75 108.168 108.133 108.364C108.515 108.551 108.8 108.84 108.987 109.232C109.173 109.615 109.267 110.109 109.267 110.716V114.51C109.267 114.697 109.22 114.841 109.127 114.944C109.043 115.047 108.917 115.098 108.749 115.098C108.571 115.098 108.436 115.047 108.343 114.944C108.249 114.841 108.203 114.697 108.203 114.51V113.418H108.329C108.254 113.773 108.109 114.076 107.895 114.328C107.689 114.58 107.433 114.776 107.125 114.916C106.817 115.056 106.471 115.126 106.089 115.126ZM114.255 115.126C113.573 115.126 112.985 114.977 112.491 114.678C111.996 114.379 111.613 113.964 111.343 113.432C111.081 112.891 110.951 112.265 110.951 111.556C110.951 111.015 111.025 110.529 111.175 110.1C111.324 109.671 111.543 109.307 111.833 109.008C112.122 108.7 112.467 108.467 112.869 108.308C113.279 108.149 113.741 108.07 114.255 108.07C114.591 108.07 114.941 108.121 115.305 108.224C115.669 108.327 116 108.504 116.299 108.756C116.392 108.821 116.453 108.901 116.481 108.994C116.509 109.087 116.509 109.181 116.481 109.274C116.453 109.358 116.406 109.433 116.341 109.498C116.275 109.554 116.191 109.587 116.089 109.596C115.995 109.605 115.897 109.573 115.795 109.498C115.552 109.311 115.305 109.181 115.053 109.106C114.801 109.031 114.558 108.994 114.325 108.994C113.961 108.994 113.643 109.055 113.373 109.176C113.102 109.288 112.873 109.451 112.687 109.666C112.5 109.881 112.355 110.147 112.253 110.464C112.159 110.781 112.113 111.15 112.113 111.57C112.113 112.382 112.304 113.026 112.687 113.502C113.069 113.969 113.615 114.202 114.325 114.202C114.558 114.202 114.796 114.165 115.039 114.09C115.291 114.015 115.543 113.885 115.795 113.698C115.897 113.623 115.995 113.591 116.089 113.6C116.182 113.609 116.261 113.647 116.327 113.712C116.392 113.768 116.434 113.843 116.453 113.936C116.481 114.029 116.481 114.123 116.453 114.216C116.425 114.3 116.364 114.375 116.271 114.44C115.972 114.683 115.645 114.86 115.291 114.972C114.936 115.075 114.591 115.126 114.255 115.126ZM118.411 115.098C118.224 115.098 118.084 115.047 117.991 114.944C117.898 114.841 117.851 114.697 117.851 114.51V105.606C117.851 105.419 117.898 105.279 117.991 105.186C118.084 105.083 118.224 105.032 118.411 105.032C118.588 105.032 118.728 105.083 118.831 105.186C118.934 105.279 118.985 105.419 118.985 105.606V111.22H119.013L121.883 108.476C122.014 108.355 122.126 108.261 122.219 108.196C122.322 108.131 122.457 108.098 122.625 108.098C122.774 108.098 122.891 108.14 122.975 108.224C123.059 108.299 123.096 108.397 123.087 108.518C123.087 108.63 123.031 108.751 122.919 108.882L119.867 111.78V111.164L123.185 114.286C123.316 114.417 123.381 114.543 123.381 114.664C123.381 114.785 123.334 114.888 123.241 114.972C123.157 115.056 123.045 115.098 122.905 115.098C122.737 115.098 122.602 115.065 122.499 115C122.396 114.925 122.27 114.818 122.121 114.678L119.013 111.808H118.985V114.51C118.985 114.902 118.794 115.098 118.411 115.098ZM127.024 115.126C126.604 115.126 126.179 115.075 125.75 114.972C125.33 114.869 124.938 114.692 124.574 114.44C124.481 114.375 124.415 114.3 124.378 114.216C124.341 114.123 124.327 114.034 124.336 113.95C124.355 113.857 124.392 113.777 124.448 113.712C124.513 113.647 124.588 113.609 124.672 113.6C124.765 113.581 124.868 113.6 124.98 113.656C125.344 113.88 125.694 114.039 126.03 114.132C126.375 114.216 126.716 114.258 127.052 114.258C127.584 114.258 127.985 114.16 128.256 113.964C128.527 113.768 128.662 113.502 128.662 113.166C128.662 112.905 128.573 112.699 128.396 112.55C128.219 112.391 127.939 112.27 127.556 112.186L126.282 111.906C125.694 111.785 125.255 111.575 124.966 111.276C124.686 110.977 124.546 110.59 124.546 110.114C124.546 109.694 124.653 109.335 124.868 109.036C125.092 108.728 125.405 108.49 125.806 108.322C126.207 108.154 126.674 108.07 127.206 108.07C127.617 108.07 128.004 108.126 128.368 108.238C128.741 108.341 129.077 108.509 129.376 108.742C129.469 108.807 129.53 108.887 129.558 108.98C129.595 109.064 129.6 109.153 129.572 109.246C129.553 109.33 129.511 109.405 129.446 109.47C129.381 109.526 129.301 109.559 129.208 109.568C129.115 109.577 129.017 109.549 128.914 109.484C128.634 109.297 128.349 109.162 128.06 109.078C127.771 108.985 127.486 108.938 127.206 108.938C126.683 108.938 126.287 109.041 126.016 109.246C125.745 109.451 125.61 109.722 125.61 110.058C125.61 110.319 125.694 110.534 125.862 110.702C126.03 110.87 126.291 110.991 126.646 111.066L127.92 111.332C128.527 111.463 128.979 111.673 129.278 111.962C129.586 112.242 129.74 112.625 129.74 113.11C129.74 113.726 129.493 114.216 128.998 114.58C128.503 114.944 127.845 115.126 127.024 115.126ZM11.472 134.126C10.9213 134.126 10.464 134.028 10.1 133.832C9.74533 133.627 9.47467 133.323 9.288 132.922C9.11067 132.521 9.022 132.021 9.022 131.424V127.672C9.022 127.476 9.06867 127.331 9.162 127.238C9.26467 127.145 9.40467 127.098 9.582 127.098C9.76867 127.098 9.90867 127.145 10.002 127.238C10.1047 127.331 10.156 127.476 10.156 127.672V131.41C10.156 132.007 10.2773 132.455 10.52 132.754C10.772 133.043 11.164 133.188 11.696 133.188C12.2747 133.188 12.746 132.992 13.11 132.6C13.474 132.208 13.656 131.695 13.656 131.06V127.672C13.656 127.476 13.7027 127.331 13.796 127.238C13.8987 127.145 14.0433 127.098 14.23 127.098C14.4073 127.098 14.5427 127.145 14.636 127.238C14.7387 127.331 14.79 127.476 14.79 127.672V133.51C14.79 133.902 14.608 134.098 14.244 134.098C14.0667 134.098 13.9267 134.047 13.824 133.944C13.7307 133.841 13.684 133.697 13.684 133.51V132.236L13.866 132.432C13.6793 132.983 13.3713 133.403 12.942 133.692C12.522 133.981 12.032 134.126 11.472 134.126ZM19.2077 134.126C18.7877 134.126 18.363 134.075 17.9337 133.972C17.5137 133.869 17.1217 133.692 16.7577 133.44C16.6643 133.375 16.599 133.3 16.5617 133.216C16.5243 133.123 16.5103 133.034 16.5197 132.95C16.5383 132.857 16.5757 132.777 16.6317 132.712C16.697 132.647 16.7717 132.609 16.8557 132.6C16.949 132.581 17.0517 132.6 17.1637 132.656C17.5277 132.88 17.8777 133.039 18.2137 133.132C18.559 133.216 18.8997 133.258 19.2357 133.258C19.7677 133.258 20.169 133.16 20.4397 132.964C20.7103 132.768 20.8457 132.502 20.8457 132.166C20.8457 131.905 20.757 131.699 20.5797 131.55C20.4023 131.391 20.1223 131.27 19.7397 131.186L18.4657 130.906C17.8777 130.785 17.439 130.575 17.1497 130.276C16.8697 129.977 16.7297 129.59 16.7297 129.114C16.7297 128.694 16.837 128.335 17.0517 128.036C17.2757 127.728 17.5883 127.49 17.9897 127.322C18.391 127.154 18.8577 127.07 19.3897 127.07C19.8003 127.07 20.1877 127.126 20.5517 127.238C20.925 127.341 21.261 127.509 21.5597 127.742C21.653 127.807 21.7137 127.887 21.7417 127.98C21.779 128.064 21.7837 128.153 21.7557 128.246C21.737 128.33 21.695 128.405 21.6297 128.47C21.5643 128.526 21.485 128.559 21.3917 128.568C21.2983 128.577 21.2003 128.549 21.0977 128.484C20.8177 128.297 20.533 128.162 20.2437 128.078C19.9543 127.985 19.6697 127.938 19.3897 127.938C18.867 127.938 18.4703 128.041 18.1997 128.246C17.929 128.451 17.7937 128.722 17.7937 129.058C17.7937 129.319 17.8777 129.534 18.0457 129.702C18.2137 129.87 18.475 129.991 18.8297 130.066L20.1037 130.332C20.7103 130.463 21.163 130.673 21.4617 130.962C21.7697 131.242 21.9237 131.625 21.9237 132.11C21.9237 132.726 21.6763 133.216 21.1817 133.58C20.687 133.944 20.029 134.126 19.2077 134.126ZM24.2119 134.07C24.0252 134.07 23.8852 134.019 23.7919 133.916C23.6986 133.804 23.6519 133.65 23.6519 133.454V127.728C23.6519 127.532 23.6986 127.383 23.7919 127.28C23.8852 127.177 24.0252 127.126 24.2119 127.126C24.3892 127.126 24.5292 127.177 24.6319 127.28C24.7346 127.383 24.7859 127.532 24.7859 127.728V133.454C24.7859 133.65 24.7346 133.804 24.6319 133.916C24.5386 134.019 24.3986 134.07 24.2119 134.07ZM24.2119 125.558C23.9786 125.558 23.7966 125.497 23.6659 125.376C23.5352 125.245 23.4699 125.073 23.4699 124.858C23.4699 124.634 23.5352 124.466 23.6659 124.354C23.7966 124.233 23.9786 124.172 24.2119 124.172C24.4546 124.172 24.6366 124.233 24.7579 124.354C24.8886 124.466 24.9539 124.634 24.9539 124.858C24.9539 125.073 24.8886 125.245 24.7579 125.376C24.6366 125.497 24.4546 125.558 24.2119 125.558ZM27.4658 134.098C27.2791 134.098 27.1391 134.047 27.0458 133.944C26.9525 133.841 26.9058 133.697 26.9058 133.51V127.672C26.9058 127.485 26.9525 127.345 27.0458 127.252C27.1391 127.149 27.2745 127.098 27.4518 127.098C27.6291 127.098 27.7645 127.149 27.8578 127.252C27.9605 127.345 28.0118 127.485 28.0118 127.672V128.876L27.8578 128.708C28.0538 128.167 28.3711 127.761 28.8098 127.49C29.2578 127.21 29.7711 127.07 30.3498 127.07C30.8911 127.07 31.3391 127.168 31.6938 127.364C32.0578 127.56 32.3285 127.859 32.5058 128.26C32.6831 128.652 32.7718 129.151 32.7718 129.758V133.51C32.7718 133.697 32.7205 133.841 32.6178 133.944C32.5245 134.047 32.3891 134.098 32.2118 134.098C32.0251 134.098 31.8805 134.047 31.7778 133.944C31.6845 133.841 31.6378 133.697 31.6378 133.51V129.828C31.6378 129.193 31.5118 128.731 31.2598 128.442C31.0171 128.143 30.6251 127.994 30.0838 127.994C29.4585 127.994 28.9591 128.19 28.5858 128.582C28.2218 128.965 28.0398 129.478 28.0398 130.122V133.51C28.0398 133.902 27.8485 134.098 27.4658 134.098ZM37.8728 136.646C37.3782 136.646 36.8928 136.585 36.4168 136.464C35.9502 136.352 35.5255 136.17 35.1428 135.918C35.0308 135.853 34.9562 135.773 34.9188 135.68C34.8908 135.587 34.8862 135.493 34.9048 135.4C34.9235 135.316 34.9655 135.237 35.0308 135.162C35.0962 135.097 35.1708 135.055 35.2548 135.036C35.3482 135.017 35.4415 135.031 35.5348 135.078C35.9455 135.33 36.3375 135.503 36.7108 135.596C37.0842 135.689 37.4528 135.736 37.8168 135.736C38.4795 135.736 38.9788 135.559 39.3148 135.204C39.6602 134.849 39.8328 134.336 39.8328 133.664V132.082H39.9728C39.8328 132.623 39.5342 133.053 39.0768 133.37C38.6288 133.687 38.1015 133.846 37.4948 133.846C36.8695 133.846 36.3282 133.706 35.8708 133.426C35.4135 133.137 35.0588 132.735 34.8068 132.222C34.5642 131.709 34.4428 131.116 34.4428 130.444C34.4428 129.94 34.5128 129.483 34.6528 129.072C34.7928 128.652 34.9935 128.297 35.2548 128.008C35.5255 127.709 35.8475 127.481 36.2208 127.322C36.6035 127.154 37.0282 127.07 37.4948 127.07C38.1108 127.07 38.6428 127.229 39.0908 127.546C39.5388 127.854 39.8282 128.274 39.9588 128.806L39.8188 128.974V127.672C39.8188 127.485 39.8655 127.345 39.9588 127.252C40.0615 127.149 40.2015 127.098 40.3788 127.098C40.5655 127.098 40.7055 127.149 40.7988 127.252C40.8922 127.345 40.9388 127.485 40.9388 127.672V133.51C40.9388 134.546 40.6775 135.325 40.1548 135.848C39.6415 136.38 38.8808 136.646 37.8728 136.646ZM37.7048 132.922C38.1435 132.922 38.5215 132.824 38.8388 132.628C39.1562 132.423 39.3988 132.133 39.5668 131.76C39.7442 131.387 39.8328 130.948 39.8328 130.444C39.8328 129.688 39.6415 129.091 39.2588 128.652C38.8762 128.204 38.3582 127.98 37.7048 127.98C37.2755 127.98 36.9022 128.083 36.5848 128.288C36.2675 128.484 36.0202 128.769 35.8428 129.142C35.6748 129.506 35.5908 129.94 35.5908 130.444C35.5908 131.2 35.7822 131.802 36.1648 132.25C36.5475 132.698 37.0608 132.922 37.7048 132.922ZM47.2353 134.07C47.0487 134.07 46.9087 134.019 46.8153 133.916C46.722 133.804 46.6753 133.65 46.6753 133.454V127.728C46.6753 127.532 46.722 127.383 46.8153 127.28C46.9087 127.177 47.0487 127.126 47.2353 127.126C47.4127 127.126 47.5527 127.177 47.6553 127.28C47.758 127.383 47.8093 127.532 47.8093 127.728V133.454C47.8093 133.65 47.758 133.804 47.6553 133.916C47.562 134.019 47.422 134.07 47.2353 134.07ZM47.2353 125.558C47.002 125.558 46.82 125.497 46.6893 125.376C46.5587 125.245 46.4933 125.073 46.4933 124.858C46.4933 124.634 46.5587 124.466 46.6893 124.354C46.82 124.233 47.002 124.172 47.2353 124.172C47.478 124.172 47.66 124.233 47.7813 124.354C47.912 124.466 47.9773 124.634 47.9773 124.858C47.9773 125.073 47.912 125.245 47.7813 125.376C47.66 125.497 47.478 125.558 47.2353 125.558ZM50.4892 134.098C50.3026 134.098 50.1626 134.047 50.0692 133.944C49.9759 133.841 49.9292 133.697 49.9292 133.51V127.672C49.9292 127.485 49.9759 127.345 50.0692 127.252C50.1626 127.149 50.2979 127.098 50.4752 127.098C50.6526 127.098 50.7879 127.149 50.8812 127.252C50.9839 127.345 51.0352 127.485 51.0352 127.672V128.876L50.8812 128.708C51.0772 128.167 51.3946 127.761 51.8332 127.49C52.2812 127.21 52.7946 127.07 53.3732 127.07C53.9146 127.07 54.3626 127.168 54.7172 127.364C55.0812 127.56 55.3519 127.859 55.5292 128.26C55.7066 128.652 55.7952 129.151 55.7952 129.758V133.51C55.7952 133.697 55.7439 133.841 55.6412 133.944C55.5479 134.047 55.4126 134.098 55.2352 134.098C55.0486 134.098 54.9039 134.047 54.8012 133.944C54.7079 133.841 54.6612 133.697 54.6612 133.51V129.828C54.6612 129.193 54.5352 128.731 54.2832 128.442C54.0406 128.143 53.6486 127.994 53.1072 127.994C52.4819 127.994 51.9826 128.19 51.6092 128.582C51.2452 128.965 51.0632 129.478 51.0632 130.122V133.51C51.0632 133.902 50.8719 134.098 50.4892 134.098ZM60.7703 134.126C60.0889 134.126 59.5009 133.977 59.0063 133.678C58.5116 133.379 58.1289 132.964 57.8583 132.432C57.5969 131.891 57.4663 131.265 57.4663 130.556C57.4663 130.015 57.5409 129.529 57.6903 129.1C57.8396 128.671 58.0589 128.307 58.3483 128.008C58.6376 127.7 58.9829 127.467 59.3843 127.308C59.7949 127.149 60.2569 127.07 60.7703 127.07C61.1063 127.07 61.4563 127.121 61.8203 127.224C62.1843 127.327 62.5156 127.504 62.8143 127.756C62.9076 127.821 62.9683 127.901 62.9963 127.994C63.0243 128.087 63.0243 128.181 62.9963 128.274C62.9683 128.358 62.9216 128.433 62.8563 128.498C62.7909 128.554 62.7069 128.587 62.6043 128.596C62.5109 128.605 62.4129 128.573 62.3103 128.498C62.0676 128.311 61.8203 128.181 61.5683 128.106C61.3163 128.031 61.0736 127.994 60.8403 127.994C60.4763 127.994 60.1589 128.055 59.8883 128.176C59.6176 128.288 59.3889 128.451 59.2023 128.666C59.0156 128.881 58.8709 129.147 58.7683 129.464C58.6749 129.781 58.6283 130.15 58.6283 130.57C58.6283 131.382 58.8196 132.026 59.2023 132.502C59.5849 132.969 60.1309 133.202 60.8403 133.202C61.0736 133.202 61.3116 133.165 61.5543 133.09C61.8063 133.015 62.0583 132.885 62.3103 132.698C62.4129 132.623 62.5109 132.591 62.6043 132.6C62.6976 132.609 62.7769 132.647 62.8423 132.712C62.9076 132.768 62.9496 132.843 62.9683 132.936C62.9963 133.029 62.9963 133.123 62.9683 133.216C62.9403 133.3 62.8796 133.375 62.7863 133.44C62.4876 133.683 62.1609 133.86 61.8063 133.972C61.4516 134.075 61.1063 134.126 60.7703 134.126ZM64.9407 134.098C64.7541 134.098 64.6094 134.047 64.5067 133.944C64.4134 133.841 64.3667 133.697 64.3667 133.51V127.672C64.3667 127.485 64.4134 127.345 64.5067 127.252C64.6001 127.149 64.7354 127.098 64.9127 127.098C65.0901 127.098 65.2254 127.149 65.3187 127.252C65.4214 127.345 65.4727 127.485 65.4727 127.672V128.806H65.3327C65.4821 128.255 65.7667 127.831 66.1867 127.532C66.6067 127.233 67.1247 127.075 67.7407 127.056C67.8807 127.047 67.9927 127.079 68.0767 127.154C68.1607 127.219 68.2074 127.336 68.2167 127.504C68.2261 127.663 68.1887 127.789 68.1047 127.882C68.0207 127.975 67.8901 128.031 67.7127 128.05L67.4887 128.078C66.8541 128.134 66.3641 128.339 66.0187 128.694C65.6827 129.039 65.5147 129.515 65.5147 130.122V133.51C65.5147 133.697 65.4634 133.841 65.3607 133.944C65.2674 134.047 65.1274 134.098 64.9407 134.098ZM72.3683 134.126C71.6496 134.126 71.0289 133.986 70.5063 133.706C69.9929 133.417 69.5916 133.011 69.3023 132.488C69.0223 131.965 68.8823 131.34 68.8823 130.612C68.8823 129.903 69.0223 129.287 69.3023 128.764C69.5823 128.232 69.9649 127.817 70.4503 127.518C70.9449 127.219 71.5143 127.07 72.1583 127.07C72.6156 127.07 73.0263 127.149 73.3903 127.308C73.7543 127.457 74.0623 127.677 74.3143 127.966C74.5756 128.255 74.7716 128.605 74.9023 129.016C75.0423 129.427 75.1123 129.889 75.1123 130.402C75.1123 130.551 75.0703 130.663 74.9863 130.738C74.9023 130.803 74.7809 130.836 74.6223 130.836H69.7503V130.094H74.3563L74.1323 130.276C74.1323 129.772 74.0576 129.347 73.9083 129.002C73.7589 128.647 73.5396 128.377 73.2503 128.19C72.9703 128.003 72.6156 127.91 72.1863 127.91C71.7103 127.91 71.3043 128.022 70.9683 128.246C70.6416 128.461 70.3943 128.764 70.2263 129.156C70.0583 129.539 69.9743 129.987 69.9743 130.5V130.584C69.9743 131.443 70.1796 132.096 70.5903 132.544C71.0103 132.992 71.6029 133.216 72.3683 133.216C72.6856 133.216 72.9983 133.174 73.3063 133.09C73.6236 133.006 73.9316 132.866 74.2303 132.67C74.3609 132.586 74.4776 132.549 74.5803 132.558C74.6923 132.558 74.7809 132.591 74.8463 132.656C74.9116 132.712 74.9536 132.787 74.9723 132.88C75.0003 132.964 74.9909 133.057 74.9443 133.16C74.9069 133.263 74.8276 133.351 74.7063 133.426C74.3983 133.65 74.0343 133.823 73.6143 133.944C73.1943 134.065 72.7789 134.126 72.3683 134.126ZM79.3435 134.126C78.7368 134.126 78.2048 133.981 77.7475 133.692C77.2995 133.403 76.9495 132.997 76.6975 132.474C76.4548 131.942 76.3335 131.317 76.3335 130.598C76.3335 129.87 76.4548 129.245 76.6975 128.722C76.9495 128.19 77.2995 127.784 77.7475 127.504C78.2048 127.215 78.7368 127.07 79.3435 127.07C79.9595 127.07 80.4868 127.224 80.9255 127.532C81.3641 127.84 81.6581 128.255 81.8075 128.778H81.6535V124.606C81.6535 124.419 81.7001 124.279 81.7935 124.186C81.8961 124.083 82.0408 124.032 82.2275 124.032C82.4048 124.032 82.5401 124.083 82.6335 124.186C82.7361 124.279 82.7875 124.419 82.7875 124.606V133.51C82.7875 133.697 82.7408 133.841 82.6475 133.944C82.5541 134.047 82.4141 134.098 82.2275 134.098C82.0501 134.098 81.9101 134.047 81.8075 133.944C81.7141 133.841 81.6675 133.697 81.6675 133.51V132.18L81.8215 132.376C81.6721 132.908 81.3735 133.333 80.9255 133.65C80.4868 133.967 79.9595 134.126 79.3435 134.126ZM79.5815 133.216C80.0015 133.216 80.3701 133.113 80.6875 132.908C81.0048 132.703 81.2475 132.404 81.4155 132.012C81.5928 131.62 81.6815 131.149 81.6815 130.598C81.6815 129.749 81.4901 129.1 81.1075 128.652C80.7341 128.204 80.2255 127.98 79.5815 127.98C79.1521 127.98 78.7788 128.083 78.4615 128.288C78.1535 128.484 77.9108 128.778 77.7335 129.17C77.5655 129.553 77.4815 130.029 77.4815 130.598C77.4815 131.438 77.6728 132.087 78.0555 132.544C78.4381 132.992 78.9468 133.216 79.5815 133.216ZM85.4756 134.07C85.2889 134.07 85.1489 134.019 85.0556 133.916C84.9622 133.804 84.9156 133.65 84.9156 133.454V127.728C84.9156 127.532 84.9622 127.383 85.0556 127.28C85.1489 127.177 85.2889 127.126 85.4756 127.126C85.6529 127.126 85.7929 127.177 85.8956 127.28C85.9982 127.383 86.0496 127.532 86.0496 127.728V133.454C86.0496 133.65 85.9982 133.804 85.8956 133.916C85.8022 134.019 85.6622 134.07 85.4756 134.07ZM85.4756 125.558C85.2422 125.558 85.0602 125.497 84.9296 125.376C84.7989 125.245 84.7336 125.073 84.7336 124.858C84.7336 124.634 84.7989 124.466 84.9296 124.354C85.0602 124.233 85.2422 124.172 85.4756 124.172C85.7182 124.172 85.9002 124.233 86.0216 124.354C86.1522 124.466 86.2176 124.634 86.2176 124.858C86.2176 125.073 86.1522 125.245 86.0216 125.376C85.9002 125.497 85.7182 125.558 85.4756 125.558ZM91.6135 134.126C90.9975 134.126 90.4655 133.967 90.0175 133.65C89.5788 133.333 89.2848 132.908 89.1355 132.376L89.2895 132.222V133.51C89.2895 133.697 89.2381 133.841 89.1355 133.944C89.0421 134.047 88.9068 134.098 88.7295 134.098C88.5428 134.098 88.4028 134.047 88.3095 133.944C88.2161 133.841 88.1695 133.697 88.1695 133.51V124.606C88.1695 124.419 88.2161 124.279 88.3095 124.186C88.4028 124.083 88.5428 124.032 88.7295 124.032C88.9068 124.032 89.0468 124.083 89.1495 124.186C89.2521 124.279 89.3035 124.419 89.3035 124.606V128.778H89.1355C89.2941 128.255 89.5928 127.84 90.0315 127.532C90.4701 127.224 90.9975 127.07 91.6135 127.07C92.2295 127.07 92.7615 127.215 93.2095 127.504C93.6575 127.784 94.0028 128.19 94.2455 128.722C94.4975 129.245 94.6235 129.87 94.6235 130.598C94.6235 131.317 94.4975 131.942 94.2455 132.474C94.0028 132.997 93.6528 133.403 93.1955 133.692C92.7475 133.981 92.2201 134.126 91.6135 134.126ZM91.3755 133.216C91.8048 133.216 92.1735 133.113 92.4815 132.908C92.7988 132.703 93.0415 132.404 93.2095 132.012C93.3868 131.62 93.4755 131.149 93.4755 130.598C93.4755 129.749 93.2841 129.1 92.9015 128.652C92.5281 128.204 92.0195 127.98 91.3755 127.98C90.9555 127.98 90.5868 128.083 90.2695 128.288C89.9521 128.484 89.7048 128.778 89.5275 129.17C89.3595 129.553 89.2755 130.029 89.2755 130.598C89.2755 131.438 89.4668 132.087 89.8495 132.544C90.2321 132.992 90.7408 133.216 91.3755 133.216ZM98.4036 134.126C97.7316 134.126 97.2182 133.921 96.8636 133.51C96.5089 133.099 96.3316 132.511 96.3316 131.746V124.606C96.3316 124.419 96.3782 124.279 96.4716 124.186C96.5649 124.083 96.7049 124.032 96.8916 124.032C97.0689 124.032 97.2089 124.083 97.3116 124.186C97.4142 124.279 97.4656 124.419 97.4656 124.606V131.662C97.4656 132.166 97.5636 132.544 97.7596 132.796C97.9649 133.039 98.2636 133.16 98.6556 133.16C98.7396 133.16 98.8142 133.155 98.8796 133.146C98.9449 133.137 99.0102 133.132 99.0756 133.132C99.1782 133.123 99.2482 133.146 99.2856 133.202C99.3322 133.258 99.3556 133.37 99.3556 133.538C99.3556 133.706 99.3182 133.832 99.2436 133.916C99.1689 134 99.0476 134.056 98.8796 134.084C98.8049 134.093 98.7256 134.103 98.6416 134.112C98.5576 134.121 98.4782 134.126 98.4036 134.126ZM103.472 134.126C102.753 134.126 102.132 133.986 101.61 133.706C101.096 133.417 100.695 133.011 100.406 132.488C100.126 131.965 99.9858 131.34 99.9858 130.612C99.9858 129.903 100.126 129.287 100.406 128.764C100.686 128.232 101.068 127.817 101.554 127.518C102.048 127.219 102.618 127.07 103.262 127.07C103.719 127.07 104.13 127.149 104.494 127.308C104.858 127.457 105.166 127.677 105.418 127.966C105.679 128.255 105.875 128.605 106.006 129.016C106.146 129.427 106.216 129.889 106.216 130.402C106.216 130.551 106.174 130.663 106.09 130.738C106.006 130.803 105.884 130.836 105.726 130.836H100.854V130.094H105.46L105.236 130.276C105.236 129.772 105.161 129.347 105.012 129.002C104.862 128.647 104.643 128.377 104.354 128.19C104.074 128.003 103.719 127.91 103.29 127.91C102.814 127.91 102.408 128.022 102.072 128.246C101.745 128.461 101.498 128.764 101.33 129.156C101.162 129.539 101.078 129.987 101.078 130.5V130.584C101.078 131.443 101.283 132.096 101.694 132.544C102.114 132.992 102.706 133.216 103.472 133.216C103.789 133.216 104.102 133.174 104.41 133.09C104.727 133.006 105.035 132.866 105.334 132.67C105.464 132.586 105.581 132.549 105.684 132.558C105.796 132.558 105.884 132.591 105.95 132.656C106.015 132.712 106.057 132.787 106.076 132.88C106.104 132.964 106.094 133.057 106.048 133.16C106.01 133.263 105.931 133.351 105.81 133.426C105.502 133.65 105.138 133.823 104.718 133.944C104.298 134.065 103.882 134.126 103.472 134.126ZM111.41 134.098C111.261 134.098 111.14 134.065 111.046 134C110.962 133.925 110.911 133.832 110.892 133.72C110.883 133.599 110.911 133.463 110.976 133.314L114.826 124.55C114.91 124.363 115.008 124.233 115.12 124.158C115.242 124.074 115.372 124.032 115.512 124.032C115.652 124.032 115.778 124.074 115.89 124.158C116.012 124.233 116.11 124.363 116.184 124.55L120.048 133.314C120.123 133.463 120.151 133.599 120.132 133.72C120.123 133.841 120.076 133.935 119.992 134C119.908 134.065 119.792 134.098 119.642 134.098C119.474 134.098 119.339 134.056 119.236 133.972C119.134 133.879 119.05 133.748 118.984 133.58L117.948 131.186L118.508 131.48H112.488L113.062 131.186L112.04 133.58C111.956 133.757 111.868 133.888 111.774 133.972C111.681 134.056 111.56 134.098 111.41 134.098ZM115.498 125.474L113.244 130.78L112.908 130.514H118.088L117.78 130.78L115.526 125.474H115.498ZM122.394 134.098C122.207 134.098 122.062 134.047 121.96 133.944C121.866 133.832 121.82 133.683 121.82 133.496V124.634C121.82 124.438 121.866 124.289 121.96 124.186C122.062 124.083 122.207 124.032 122.394 124.032C122.58 124.032 122.72 124.083 122.814 124.186C122.916 124.289 122.968 124.438 122.968 124.634V133.496C122.968 133.683 122.921 133.832 122.828 133.944C122.734 134.047 122.59 134.098 122.394 134.098Z"
                fill="#C6C3C6" />
        </g>
    </g>
    <defs>
        <filter id="filter0_ii_1357_4054" x="0" y="0" width="160" height="161" filterUnits="userSpaceOnUse"
            color-interpolation-filters="sRGB">
            <feFlood flood-opacity="0" result="BackgroundImageFix" />
            <feBlend mode="normal" in="SourceGraphic" in2="BackgroundImageFix" result="shape" />
            <feColorMatrix in="SourceAlpha" type="matrix" values="0 0 0 0 0 0 0 0 0 0 0 0 0 0 0 0 0 0 127 0"
                result="hardAlpha" />
            <feOffset dy="4" />
            <feGaussianBlur stdDeviation="9" />
            <feComposite in2="hardAlpha" operator="arithmetic" k2="-1" k3="1" />
            <feColorMatrix type="matrix" values="0 0 0 0 0.407843 0 0 0 0 0.211765 0 0 0 0 0.411765 0 0 0 0.2 0" />
            <feBlend mode="normal" in2="shape" result="effect1_innerShadow_1357_4054" />
            <feColorMatrix in="SourceAlpha" type="matrix" values="0 0 0 0 0 0 0 0 0 0 0 0 0 0 0 0 0 0 127 0"
                result="hardAlpha" />
            <feMorphology radius="30" operator="dilate" in="SourceAlpha" result="effect2_innerShadow_1357_4054" />
            <feOffset dy="8" />
            <feGaussianBlur stdDeviation="35" />
            <feComposite in2="hardAlpha" operator="arithmetic" k2="-1" k3="1" />
            <feColorMatrix type="matrix" values="0 0 0 0 1 0 0 0 0 1 0 0 0 0 1 0 0 0 0.15 0" />
            <feBlend mode="normal" in2="effect1_innerShadow_1357_4054" result="effect2_innerShadow_1357_4054" />
        </filter>
        <filter id="filter1_b_1357_4054" x="-25" y="32" width="217" height="148.432" filterUnits="userSpaceOnUse"
            color-interpolation-filters="sRGB">
            <feFlood flood-opacity="0" result="BackgroundImageFix" />
            <feGaussianBlur in="BackgroundImageFix" stdDeviation="12.5" />
            <feComposite in2="SourceAlpha" operator="in" result="effect1_backgroundBlur_1357_4054" />
            <feBlend mode="normal" in="SourceGraphic" in2="effect1_backgroundBlur_1357_4054" result="shape" />
        </filter>
        <linearGradient id="paint0_linear_1357_4054" x1="133" y1="34" x2="133" y2="42" gradientUnits="userSpaceOnUse">
            <stop stop-color="#6BF0F2" />
            <stop offset="1" stop-color="#6BF0F2" stop-opacity="0" />
        </linearGradient>
        <linearGradient id="paint1_linear_1357_4054" x1="137" y1="13" x2="137" y2="37" gradientUnits="userSpaceOnUse">
            <stop stop-color="#6BF0F2" />
            <stop offset="1" stop-color="#6BF0F2" stop-opacity="0" />
        </linearGradient>
        <linearGradient id="paint2_linear_1357_4054" x1="85" y1="108" x2="85" y2="116" gradientUnits="userSpaceOnUse">
            <stop stop-color="#6BF0F2" />
            <stop offset="1" stop-color="#FDD8FE" stop-opacity="0" />
        </linearGradient>
        <linearGradient id="paint3_linear_1357_4054" x1="89" y1="87" x2="89" y2="111" gradientUnits="userSpaceOnUse">
            <stop stop-color="#6BF0F2" />
            <stop offset="1" stop-color="#FDD8FE" stop-opacity="0" />
        </linearGradient>
        <linearGradient id="paint4_linear_1357_4054" x1="28.0018" y1="36.535" x2="30.4689" y2="46.2259"
            gradientUnits="userSpaceOnUse">
            <stop stop-color="#6BF0F2" />
            <stop offset="1" stop-color="#6BF0F2" stop-opacity="0" />
        </linearGradient>
        <linearGradient id="paint5_linear_1357_4054" x1="26.4637" y1="10.3518" x2="26.4637" y2="40.3518"
            gradientUnits="userSpaceOnUse">
            <stop stop-color="#6BF0F2" />
            <stop offset="1" stop-color="#6BF0F2" stop-opacity="0" />
        </linearGradient>
        <linearGradient id="paint6_linear_1357_4054" x1="53.2435" y1="149.961" x2="50.9472" y2="159.694"
            gradientUnits="userSpaceOnUse">
            <stop stop-color="#6BF0F2" />
            <stop offset="1" stop-color="#FDD8FE" stop-opacity="0" />
        </linearGradient>
        <linearGradient id="paint7_linear_1357_4054" x1="64.1071" y1="125.575" x2="64.1071" y2="155.575"
            gradientUnits="userSpaceOnUse">
            <stop stop-color="#6BF0F2" />
            <stop offset="1" stop-color="#FDD8FE" stop-opacity="0" />
        </linearGradient>
        <linearGradient id="paint8_linear_1357_4054" x1="61.6968" y1="51.3046" x2="60.4587" y2="62.2347"
            gradientUnits="userSpaceOnUse">
            <stop stop-color="#F780FB" />
            <stop offset="1" stop-color="#F999FC" stop-opacity="0" />
        </linearGradient>
        <linearGradient id="paint9_linear_1357_4054" x1="93.4935" y1="54.9063" x2="92.2554" y2="65.8364"
            gradientUnits="userSpaceOnUse">
            <stop stop-color="#F780FB" />
            <stop offset="1" stop-color="#F999FC" stop-opacity="0" />
        </linearGradient>
        <linearGradient id="paint10_linear_1357_4054" x1="87.0883" y1="18.9569" x2="82.6439" y2="58.1926"
            gradientUnits="userSpaceOnUse">
            <stop stop-color="#F780FB" />
            <stop offset="1" stop-color="#F999FC" stop-opacity="0" />
        </linearGradient>
        <linearGradient id="paint11_linear_1357_4054" x1="100.697" y1="125.305" x2="99.4587" y2="136.235"
            gradientUnits="userSpaceOnUse">
            <stop stop-color="#FDD8FE" />
            <stop offset="1" stop-color="#FDD8FE" stop-opacity="0" />
        </linearGradient>
        <linearGradient id="paint12_linear_1357_4054" x1="132.493" y1="128.906" x2="131.255" y2="139.836"
            gradientUnits="userSpaceOnUse">
            <stop stop-color="#FDD8FE" />
            <stop offset="1" stop-color="#FDD8FE" stop-opacity="0" />
        </linearGradient>
        <linearGradient id="paint13_linear_1357_4054" x1="126.088" y1="92.9569" x2="121.644" y2="132.193"
            gradientUnits="userSpaceOnUse">
            <stop stop-color="#FDD8FE" />
            <stop offset="1" stop-color="#FDD8FE" stop-opacity="0" />
        </linearGradient>
        <linearGradient id="paint14_linear_1357_4054" x1="12.706" y1="121.299" x2="15.7686" y2="131.864"
            gradientUnits="userSpaceOnUse">
            <stop stop-color="#FDD8FE" />
            <stop offset="1" stop-color="#FDD8FE" stop-opacity="0" />
        </linearGradient>
        <linearGradient id="paint15_linear_1357_4054" x1="43.4406" y1="112.39" x2="46.5033" y2="122.955"
            gradientUnits="userSpaceOnUse">
            <stop stop-color="#FDD8FE" />
            <stop offset="1" stop-color="#FDD8FE" stop-opacity="0" />
        </linearGradient>
        <linearGradient id="paint16_linear_1357_4054" x1="23.6968" y1="81.6723" x2="34.6908" y2="119.598"
            gradientUnits="userSpaceOnUse">
            <stop stop-color="#FDD8FE" />
            <stop offset="1" stop-color="#FDD8FE" stop-opacity="0" />
        </linearGradient>
        <clipPath id="clip0_1357_4054">
            <rect width="160" height="153" rx="16" fill="white" />
        </clipPath>
    </defs>
</svg>