<svg width="328" height="200" viewBox="0 0 328 200" fill="none" xmlns="http://www.w3.org/2000/svg">
    <rect width="328" height="200" rx="18" fill="url(#paint0_linear_1920_4162)" />
    <path
        d="M94.5532 108.5V90.17H102.925C104.971 90.17 106.548 90.664 107.657 91.652C108.767 92.64 109.321 94.018 109.321 95.786C109.321 97.1553 108.966 98.2993 108.255 99.218C107.562 100.119 106.565 100.735 105.265 101.064C106.184 101.341 106.938 102.009 107.527 103.066L110.491 108.5H106.045L102.873 102.65C102.613 102.182 102.293 101.861 101.911 101.688C101.53 101.497 101.079 101.402 100.559 101.402H98.5832V108.5H94.5532ZM98.5832 98.49H102.197C104.364 98.49 105.447 97.6233 105.447 95.89C105.447 94.174 104.364 93.316 102.197 93.316H98.5832V98.49ZM118.073 108.786C116.565 108.786 115.265 108.517 114.173 107.98C113.099 107.425 112.267 106.654 111.677 105.666C111.105 104.661 110.819 103.482 110.819 102.13C110.819 100.813 111.097 99.66 111.651 98.672C112.223 97.6667 112.995 96.8867 113.965 96.332C114.953 95.76 116.089 95.474 117.371 95.474C119.226 95.474 120.699 96.0633 121.791 97.242C122.883 98.4033 123.429 99.9807 123.429 101.974V102.962H114.563C114.702 103.967 115.066 104.704 115.655 105.172C116.262 105.623 117.094 105.848 118.151 105.848C118.845 105.848 119.547 105.744 120.257 105.536C120.968 105.328 121.609 105.007 122.181 104.574L123.221 107.2C122.58 107.685 121.791 108.075 120.855 108.37C119.937 108.647 119.009 108.786 118.073 108.786ZM117.527 98.074C116.695 98.074 116.019 98.3253 115.499 98.828C114.997 99.3307 114.685 100.033 114.563 100.934H120.179C120.075 99.0273 119.191 98.074 117.527 98.074ZM125.245 108.5V95.734H129.093V97.58C129.474 96.9213 129.994 96.41 130.653 96.046C131.329 95.6647 132.109 95.474 132.993 95.474C133.894 95.474 134.657 95.6733 135.281 96.072C135.922 96.4707 136.407 97.0773 136.737 97.892C137.135 97.1293 137.707 96.54 138.453 96.124C139.215 95.6907 140.056 95.474 140.975 95.474C142.431 95.474 143.514 95.916 144.225 96.8C144.935 97.6667 145.291 99.01 145.291 100.83V108.5H141.365V100.96C141.365 100.111 141.226 99.4953 140.949 99.114C140.689 98.7153 140.238 98.516 139.597 98.516C138.851 98.516 138.271 98.776 137.855 99.296C137.439 99.816 137.231 100.553 137.231 101.506V108.5H133.305V100.96C133.305 100.111 133.166 99.4953 132.889 99.114C132.611 98.7153 132.161 98.516 131.537 98.516C130.791 98.516 130.211 98.776 129.795 99.296C129.379 99.816 129.171 100.553 129.171 101.506V108.5H125.245ZM147.622 93.264V89.598H151.86V93.264H147.622ZM147.778 108.5V95.734H151.704V108.5H147.778ZM152.369 108.5L157.751 101.922L152.707 95.734H157.283L159.987 99.244L162.691 95.734H167.267L162.223 101.922L167.631 108.5H163.029L159.987 104.652L156.945 108.5H152.369ZM181.825 108.786C180.386 108.786 179.026 108.604 177.743 108.24C176.478 107.876 175.42 107.382 174.571 106.758L175.741 103.586C176.556 104.158 177.483 104.609 178.523 104.938C179.58 105.267 180.681 105.432 181.825 105.432C183.073 105.432 183.966 105.241 184.503 104.86C185.058 104.461 185.335 103.967 185.335 103.378C185.335 102.875 185.144 102.477 184.763 102.182C184.382 101.887 183.714 101.636 182.761 101.428L179.823 100.804C176.547 100.111 174.909 98.412 174.909 95.708C174.909 94.5467 175.221 93.5327 175.845 92.666C176.469 91.782 177.336 91.0973 178.445 90.612C179.572 90.1267 180.872 89.884 182.345 89.884C183.61 89.884 184.798 90.066 185.907 90.43C187.016 90.794 187.935 91.3053 188.663 91.964L187.493 94.928C186.072 93.8013 184.347 93.238 182.319 93.238C181.227 93.238 180.378 93.4547 179.771 93.888C179.182 94.304 178.887 94.85 178.887 95.526C178.887 96.0287 179.069 96.436 179.433 96.748C179.797 97.06 180.43 97.3113 181.331 97.502L184.269 98.126C187.632 98.854 189.313 100.501 189.313 103.066C189.313 104.21 189.001 105.215 188.377 106.082C187.77 106.931 186.904 107.599 185.777 108.084C184.668 108.552 183.35 108.786 181.825 108.786ZM197.207 108.786C195.838 108.786 194.642 108.517 193.619 107.98C192.614 107.425 191.834 106.654 191.279 105.666C190.725 104.661 190.447 103.473 190.447 102.104C190.447 100.752 190.725 99.582 191.279 98.594C191.834 97.5887 192.614 96.8173 193.619 96.28C194.642 95.7427 195.838 95.474 197.207 95.474C198.577 95.474 199.764 95.7427 200.769 96.28C201.792 96.8173 202.581 97.5887 203.135 98.594C203.707 99.582 203.993 100.752 203.993 102.104C203.993 103.473 203.707 104.661 203.135 105.666C202.581 106.654 201.792 107.425 200.769 107.98C199.764 108.517 198.577 108.786 197.207 108.786ZM197.207 105.848C198.039 105.848 198.715 105.545 199.235 104.938C199.773 104.331 200.041 103.387 200.041 102.104C200.041 100.839 199.773 99.9113 199.235 99.322C198.715 98.7153 198.039 98.412 197.207 98.412C196.375 98.412 195.699 98.7153 195.179 99.322C194.659 99.9113 194.399 100.839 194.399 102.104C194.399 103.387 194.659 104.331 195.179 104.938C195.699 105.545 196.375 105.848 197.207 105.848ZM205.862 108.5V95.734H209.71V97.606C210.143 96.9127 210.724 96.384 211.452 96.02C212.18 95.656 212.994 95.474 213.896 95.474C215.404 95.474 216.53 95.916 217.276 96.8C218.021 97.6667 218.394 99.01 218.394 100.83V108.5H214.468V101.012C214.468 100.128 214.303 99.4953 213.974 99.114C213.644 98.7153 213.159 98.516 212.518 98.516C211.686 98.516 211.018 98.776 210.516 99.296C210.03 99.816 209.788 100.509 209.788 101.376V108.5H205.862ZM226.941 113.466C225.71 113.466 224.557 113.336 223.483 113.076C222.425 112.816 221.498 112.409 220.701 111.854L221.767 109.176C222.46 109.609 223.24 109.939 224.107 110.164C224.991 110.407 225.823 110.528 226.603 110.528C228.821 110.528 229.931 109.505 229.931 107.46V106.004C229.584 106.663 229.038 107.191 228.293 107.59C227.547 107.989 226.733 108.188 225.849 108.188C224.705 108.188 223.708 107.928 222.859 107.408C222.009 106.871 221.351 106.125 220.883 105.172C220.415 104.219 220.181 103.101 220.181 101.818C220.181 100.553 220.415 99.4433 220.883 98.49C221.351 97.5367 222.009 96.8 222.859 96.28C223.708 95.7427 224.705 95.474 225.849 95.474C226.767 95.474 227.591 95.6733 228.319 96.072C229.047 96.4707 229.584 96.9993 229.931 97.658V95.734H233.753V107.018C233.753 109.167 233.172 110.779 232.011 111.854C230.849 112.929 229.159 113.466 226.941 113.466ZM227.019 105.25C227.885 105.25 228.579 104.947 229.099 104.34C229.636 103.733 229.905 102.893 229.905 101.818C229.905 100.743 229.636 99.9113 229.099 99.322C228.579 98.7153 227.885 98.412 227.019 98.412C226.135 98.412 225.433 98.7153 224.913 99.322C224.393 99.9113 224.133 100.743 224.133 101.818C224.133 102.893 224.393 103.733 224.913 104.34C225.433 104.947 226.135 105.25 227.019 105.25Z"
        fill="white" />
    <defs>
        <linearGradient id="paint0_linear_1920_4162" x1="164" y1="0" x2="164" y2="200" gradientUnits="userSpaceOnUse">
            <stop stop-color="#6BF0F2" />
            <stop offset="1" stop-color="#61DADC" stop-opacity="0" />
        </linearGradient>
    </defs>
</svg>